<?xml version="1.0" standalone="no"?>
<!DOCTYPE svg PUBLIC "-//W3C//DTD SVG 20010904//EN"
 "http://www.w3.org/TR/2001/REC-SVG-20010904/DTD/svg10.dtd">
<svg version="1.0" xmlns="http://www.w3.org/2000/svg"
 width="512.000000pt" height="512.000000pt" viewBox="0 0 512.000000 512.000000"
 preserveAspectRatio="xMidYMid meet">

<g transform="translate(0.000000,512.000000) scale(0.100000,-0.100000)"
fill="#000000" stroke="none">
<path d="M1495 4078 c-31 -27 -37 -80 -11 -106 15 -16 103 -17 1144 -22 l1127
-5 81 -27 c146 -50 276 -163 339 -295 30 -62 58 -177 45 -181 -32 -11 -135
-88 -181 -135 -118 -121 -176 -266 -186 -459 l-6 -117 -536 -3 -536 -3 -66
-31 c-36 -17 -84 -49 -108 -72 l-43 -41 -30 35 c-16 18 -64 51 -106 71 l-76
38 -536 3 -537 3 -6 118 c-11 195 -69 338 -186 458 -46 47 -149 124 -181 135
-16 5 19 128 58 202 47 89 136 181 225 230 69 39 87 59 87 96 0 30 -44 70 -77
70 -47 0 -153 -70 -244 -160 -72 -72 -94 -102 -133 -181 -25 -51 -52 -119 -60
-149 l-14 -55 -68 3 c-107 4 -226 -21 -324 -69 -109 -54 -229 -170 -278 -271
-94 -192 -94 -388 -2 -576 45 -89 134 -190 222 -250 l48 -32 0 -274 c0 -246 2
-280 20 -339 52 -167 197 -297 369 -330 l58 -11 6 -97 c5 -100 18 -138 59
-176 50 -47 84 -53 295 -53 226 0 258 8 309 76 27 35 29 45 32 141 l4 103
1068 0 1068 0 4 -103 c3 -96 5 -106 32 -141 51 -68 83 -76 309 -76 211 0 245
6 295 53 41 38 54 76 59 176 l6 97 66 12 c114 22 167 71 139 129 -23 47 -56
56 -123 33 -57 -20 -87 -20 -1856 -20 l-1798 0 -58 22 c-79 29 -162 112 -191
191 -21 54 -22 75 -22 352 0 161 -4 305 -9 318 -6 15 -34 38 -73 60 -180 101
-283 306 -249 497 29 160 124 287 269 357 70 34 86 38 179 41 84 4 112 1 166
-17 127 -43 224 -127 283 -246 40 -83 54 -148 54 -260 l0 -83 -47 -7 c-128
-19 -237 -97 -296 -209 l-32 -61 -3 -210 -3 -210 28 -55 c32 -61 93 -114 151
-130 24 -6 299 -10 782 -10 727 0 746 1 790 21 24 11 53 27 62 36 17 15 19 15
36 0 9 -9 38 -25 62 -36 44 -20 63 -21 790 -21 483 0 758 4 782 10 58 16 119
69 151 130 l28 55 -3 210 -3 210 -32 61 c-59 112 -168 190 -296 209 l-47 7 0
83 c0 112 14 177 54 260 59 119 156 203 283 246 54 18 82 21 166 17 93 -3 109
-7 179 -41 146 -71 241 -198 268 -359 33 -193 -68 -394 -248 -495 -36 -20 -67
-45 -72 -58 -5 -13 -10 -172 -11 -354 -2 -307 -1 -333 16 -351 40 -45 113 -14
130 55 4 17 7 150 6 297 l-2 267 70 51 c94 68 154 138 202 235 126 255 72 549
-137 744 -122 114 -309 181 -467 166 -51 -5 -68 -3 -70 7 -18 72 -63 188 -93
239 -45 78 -179 212 -256 257 -70 41 -172 78 -258 91 -43 7 -443 11 -1157 11
l-1092 0 -26 -22z m883 -1541 c23 -15 54 -46 69 -69 27 -41 28 -45 31 -216 2
-117 -1 -184 -8 -203 -26 -61 -6 -60 -805 -57 l-727 3 -29 33 -29 32 0 169 c0
165 1 170 28 222 22 42 40 61 82 87 l55 32 646 -2 645 -3 42 -28z m1763 -2
c27 -19 54 -50 71 -84 27 -52 28 -57 28 -222 l0 -169 -29 -32 -29 -33 -714 -3
c-392 -2 -727 0 -744 3 -18 3 -44 17 -58 32 l-26 26 0 174 c0 123 4 183 13
206 21 48 62 93 110 116 42 21 48 21 689 19 l646 -3 43 -30z"/>
<path d="M3195 3551 c-107 -49 -171 -196 -110 -256 50 -50 109 -23 133 61 24
85 114 81 139 -6 22 -79 81 -103 130 -54 22 22 25 32 21 75 -14 147 -179 242
-313 180z"/>
<path d="M1823 3538 c-34 -16 -46 -59 -41 -149 3 -70 6 -83 27 -100 30 -24 72
-24 102 0 22 18 24 26 24 116 0 94 -1 98 -28 121 -30 26 -50 29 -84 12z"/>
<path d="M2326 3399 c-61 -48 -14 -133 103 -187 79 -37 183 -37 261 -1 118 55
164 140 104 188 -38 30 -64 26 -119 -16 -45 -35 -53 -38 -115 -38 -62 0 -70 3
-115 38 -55 42 -81 46 -119 16z"/>
</g>
</svg>
