<?xml version="1.0" standalone="no"?>
<!DOCTYPE svg PUBLIC "-//W3C//DTD SVG 20010904//EN"
 "http://www.w3.org/TR/2001/REC-SVG-20010904/DTD/svg10.dtd">
<svg version="1.0" xmlns="http://www.w3.org/2000/svg"
 width="512.000000pt" height="512.000000pt" viewBox="0 0 512.000000 512.000000"
 preserveAspectRatio="xMidYMid meet">

<g transform="translate(0.000000,512.000000) scale(0.100000,-0.100000)"
fill="#000000" stroke="none">
<path d="M1089 5021 c-108 -35 -199 -120 -234 -220 -8 -24 -185 -940 -392
-2035 l-378 -1991 0 -230 c0 -219 1 -232 23 -275 35 -72 75 -114 144 -151 l63
-34 2245 0 2245 0 63 34 c70 38 100 69 140 145 26 50 27 55 30 268 4 235 -4
289 -51 359 l-23 34 24 80 c39 134 55 265 49 405 -11 246 -77 451 -212 655
l-53 80 -246 1307 c-136 719 -253 1326 -261 1348 -36 103 -124 185 -234 220
-62 20 -89 20 -1475 19 -1327 0 -1414 -1 -1467 -18z m2894 -152 c43 -12 101
-59 122 -100 8 -15 114 -553 235 -1196 121 -642 223 -1181 226 -1198 l6 -30
-23 21 c-99 88 -311 193 -476 236 -153 39 -363 49 -518 24 -267 -44 -503 -165
-696 -356 -289 -288 -426 -695 -364 -1090 8 -52 17 -105 21 -118 l6 -22 -1078
0 c-636 0 -1092 -4 -1112 -9 -17 -5 -32 -7 -32 -5 0 34 704 3723 714 3742 21
41 69 82 112 97 32 12 275 14 1429 15 940 0 1402 -4 1428 -11z m-7 -2414 c158
-30 316 -99 449 -197 l68 -50 -246 -246 -247 -247 -25 26 -26 25 25 55 c44 93
30 180 -41 259 -95 105 -236 108 -339 5 -79 -79 -95 -179 -45 -276 12 -23 20
-43 18 -46 -3 -2 -46 14 -96 37 -51 22 -101 40 -112 40 -16 0 -173 -72 -188
-86 -5 -4 60 -144 66 -144 2 0 31 14 64 31 l61 30 44 -17 c24 -9 44 -19 44
-21 0 -2 -11 -25 -24 -51 -13 -26 -29 -63 -35 -83 -11 -36 -14 -37 -79 -49
-65 -13 -69 -15 -157 -101 l-90 -88 57 -58 58 -58 72 71 c99 97 105 98 113 21
4 -34 10 -78 15 -98 l7 -37 -237 -237 -237 -237 -52 69 c-136 181 -212 414
-213 653 -1 198 36 353 126 527 177 340 499 553 906 597 56 6 219 -4 296 -19z
m704 -461 c274 -396 263 -924 -28 -1310 -288 -382 -798 -538 -1253 -383 -90
30 -222 100 -303 160 l-69 51 208 208 208 208 36 -54 c92 -136 269 -190 414
-126 59 26 138 99 168 157 13 25 26 45 29 45 3 0 23 -10 45 -23 35 -20 85 -90
108 -152 3 -8 147 52 147 62 0 2 -20 44 -45 93 -44 89 -46 90 -120 131 -41 22
-77 45 -80 49 -3 5 0 49 6 98 15 109 18 109 115 11 38 -38 73 -69 78 -69 14 0
106 92 106 105 0 6 -39 50 -87 97 -85 82 -90 85 -155 97 l-66 13 -22 60 -22
61 253 253 c184 184 256 250 265 243 7 -5 35 -44 64 -85z m-865 -19 c50 -49
15 -135 -55 -135 -41 0 -80 39 -80 80 0 41 39 80 80 80 19 0 40 -9 55 -25z
m34 -339 l35 -36 -39 -40 -39 -40 -113 0 c-64 0 -113 4 -113 9 0 15 111 132
135 142 40 17 96 3 134 -35z m-209 -279 c0 -1 -27 -29 -60 -62 l-60 -59 0 62
0 62 60 0 c33 0 60 -1 60 -3z m360 -46 c0 -27 -3 -63 -6 -80 l-6 -31 -137 0
-136 0 80 80 80 80 62 0 63 0 0 -49z m-60 -281 c0 -6 -9 -28 -20 -49 -50 -99
-167 -129 -261 -67 -34 23 -79 88 -79 116 0 6 62 10 180 10 118 0 180 -4 180
-10z m-3380 -350 l0 -200 80 0 80 0 0 200 0 200 120 0 120 0 0 -200 0 -200 80
0 80 0 0 200 0 200 120 0 120 0 0 -200 0 -200 80 0 80 0 0 200 0 200 120 0
120 0 0 -200 0 -200 80 0 80 0 0 200 0 200 120 0 120 0 0 -200 0 -200 80 0 80
0 0 200 0 200 128 0 128 0 28 -65 c76 -174 274 -405 444 -516 l82 -54 -1367
-3 c-753 -1 -1382 0 -1400 3 -41 7 -92 50 -109 92 -17 40 -20 397 -3 440 29
76 81 102 212 103 l97 0 0 -200z m4315 -318 c-8 -44 -59 -99 -103 -112 -22 -7
-107 -10 -210 -8 l-172 3 82 54 c107 70 279 242 349 349 l54 82 3 -167 c2 -93
0 -183 -3 -201z"/>
<path d="M1600 4480 l0 -80 80 0 80 0 0 80 0 80 -80 0 -80 0 0 -80z"/>
<path d="M2480 4480 l0 -80 80 0 80 0 0 80 0 80 -80 0 -80 0 0 -80z"/>
<path d="M3360 4480 l0 -80 80 0 80 0 0 80 0 80 -80 0 -80 0 0 -80z"/>
<path d="M1520 4000 l0 -80 80 0 80 0 0 80 0 80 -80 0 -80 0 0 -80z"/>
<path d="M2480 4000 l0 -80 80 0 80 0 0 80 0 80 -80 0 -80 0 0 -80z"/>
<path d="M3440 4000 l0 -80 80 0 80 0 0 80 0 80 -80 0 -80 0 0 -80z"/>
<path d="M1440 3520 l0 -80 80 0 80 0 0 80 0 80 -80 0 -80 0 0 -80z"/>
<path d="M2480 3520 l0 -80 80 0 80 0 0 80 0 80 -80 0 -80 0 0 -80z"/>
<path d="M3520 3520 l0 -80 80 0 80 0 0 80 0 80 -80 0 -80 0 0 -80z"/>
<path d="M1360 3040 l0 -80 80 0 80 0 0 80 0 80 -80 0 -80 0 0 -80z"/>
<path d="M2480 3040 l0 -80 80 0 80 0 0 80 0 80 -80 0 -80 0 0 -80z"/>
<path d="M3600 3040 l0 -80 80 0 80 0 0 80 0 80 -80 0 -80 0 0 -80z"/>
<path d="M1280 2560 l0 -80 80 0 80 0 0 80 0 80 -80 0 -80 0 0 -80z"/>
<path d="M2480 2560 l0 -80 80 0 80 0 0 80 0 80 -80 0 -80 0 0 -80z"/>
<path d="M1200 2080 l0 -80 80 0 80 0 0 80 0 80 -80 0 -80 0 0 -80z"/>
<path d="M1120 1600 l0 -80 80 0 80 0 0 80 0 80 -80 0 -80 0 0 -80z"/>
</g>
</svg>
