<?xml version="1.0" standalone="no"?>
<!DOCTYPE svg PUBLIC "-//W3C//DTD SVG 20010904//EN"
 "http://www.w3.org/TR/2001/REC-SVG-20010904/DTD/svg10.dtd">
<svg version="1.0" xmlns="http://www.w3.org/2000/svg"
 width="512.000000pt" height="512.000000pt" viewBox="0 0 512.000000 512.000000"
 preserveAspectRatio="xMidYMid meet">

<g transform="translate(0.000000,512.000000) scale(0.100000,-0.100000)"
fill="#000000" stroke="none">
<path d="M1855 5114 c-495 -52 -923 -251 -1260 -589 -305 -304 -495 -677 -572
-1120 -23 -139 -24 -480 0 -620 72 -417 235 -750 523 -1071 l82 -91 -53 -28
-53 -29 -88 27 c-162 49 -208 32 -293 -108 -92 -152 -84 -211 45 -328 l64 -59
0 -82 0 -82 -69 -61 c-118 -106 -129 -165 -56 -299 92 -168 146 -189 329 -128
l68 24 70 -41 c38 -22 71 -46 73 -52 2 -7 11 -47 20 -89 18 -86 44 -132 94
-165 30 -21 46 -23 147 -23 129 0 155 7 200 56 27 28 37 52 55 133 l23 99 72
41 c69 39 73 40 105 27 19 -7 63 -21 99 -31 123 -32 187 7 268 164 44 87 48
104 32 162 -9 33 -35 62 -156 177 -15 15 -20 147 -6 169 6 9 29 8 102 -4 134
-24 478 -23 615 0 335 59 609 171 873 360 l84 60 129 -129 c71 -71 129 -133
129 -137 0 -5 -9 -20 -20 -34 -25 -32 -27 -108 -4 -143 27 -41 567 -580 596
-596 52 -28 108 8 108 69 0 22 -15 45 -62 93 l-62 65 157 157 157 157 270
-270 270 -270 -157 -157 -158 -158 -105 104 c-58 57 -115 109 -127 115 -48 24
-103 -14 -103 -72 0 -23 22 -51 108 -139 157 -162 208 -190 286 -153 18 9 117
100 219 203 153 155 186 194 192 224 15 82 25 70 -499 597 -270 271 -513 511
-539 532 -41 33 -56 39 -97 39 -32 0 -55 -6 -73 -20 -14 -11 -29 -20 -34 -20
-4 0 -66 58 -137 129 l-129 129 50 69 c197 269 331 600 374 927 l12 96 34 0
c82 0 143 64 167 176 10 44 20 87 22 96 3 9 36 35 74 57 l69 39 78 -25 c163
-54 222 -33 305 105 87 148 80 212 -38 320 l-74 69 0 80 0 80 69 61 c77 69
101 110 101 175 0 74 -90 227 -155 264 -52 29 -89 29 -197 -4 l-89 -27 -55 30
c-83 45 -84 46 -104 138 -24 108 -41 139 -92 174 -39 26 -48 27 -157 27 -176
0 -215 -31 -252 -196 l-22 -95 -65 -37 c-35 -20 -68 -37 -72 -37 -5 0 -33 28
-62 62 -67 77 -234 227 -313 279 -65 44 -95 46 -128 7 -36 -42 -20 -76 68
-146 121 -97 181 -155 164 -160 -8 -3 -34 -24 -58 -48 l-43 -43 -58 50 c-573
505 -1429 568 -2068 153 -661 -430 -949 -1239 -706 -1984 252 -770 1020 -1267
1822 -1179 212 23 392 77 587 174 177 89 297 176 445 325 149 148 236 268 325
445 104 208 156 392 177 626 11 122 13 126 24 92 18 -52 44 -84 88 -106 l38
-20 -7 -56 c-94 -784 -699 -1440 -1476 -1601 -622 -128 -1251 60 -1703 507
-570 565 -716 1421 -367 2144 116 241 307 480 522 653 526 422 1260 522 1895
256 54 -22 107 -40 119 -40 55 0 88 86 46 124 -57 52 -351 151 -551 186 -121
21 -413 34 -515 24z m467 -473 c279 -56 546 -190 759 -380 60 -54 70 -67 64
-88 -13 -54 13 -105 96 -185 l79 -76 0 -74 0 -74 -79 -80 c-84 -84 -108 -133
-95 -191 10 -45 96 -193 127 -219 60 -51 123 -51 264 -3 l51 17 8 -86 c27
-335 -82 -728 -282 -1007 -245 -344 -586 -565 -999 -647 -158 -32 -423 -32
-582 0 -642 128 -1127 613 -1255 1255 -32 160 -32 424 0 585 138 693 694 1200
1397 1276 89 9 352 -4 447 -23z m1757 -45 c6 -7 20 -53 31 -102 10 -48 27 -99
38 -113 10 -14 59 -50 108 -80 113 -69 156 -75 269 -37 42 14 83 26 90 26 14
0 85 -118 85 -140 0 -7 -32 -42 -71 -78 -40 -37 -78 -81 -85 -99 -19 -43 -19
-233 0 -276 7 -18 45 -61 85 -96 39 -35 71 -69 71 -77 0 -17 -56 -118 -74
-133 -9 -8 -38 -3 -107 20 -67 21 -104 28 -129 24 -49 -9 -196 -93 -231 -132
-28 -32 -34 -48 -60 -168 l-14 -60 -87 -3 -86 -3 -17 78 c-33 154 -38 161
-170 236 -110 63 -130 65 -246 28 -53 -17 -99 -31 -102 -31 -3 0 -24 33 -47
72 l-42 73 80 75 c93 87 102 109 102 243 0 116 -14 146 -106 233 l-76 72 29
49 c15 27 35 60 44 74 l16 24 85 -28 c118 -38 155 -36 247 14 143 78 152 90
183 228 10 47 24 88 30 93 22 14 144 9 157 -6z m-436 -3014 l127 -127 -53 -53
-52 -52 -130 130 -129 130 49 50 c27 27 52 50 55 50 3 0 63 -57 133 -128z
m-2827 -109 l64 -47 -53 -16 c-164 -52 -267 -166 -297 -329 -13 -74 -3 -112
36 -130 35 -15 48 -14 76 9 19 14 27 33 32 71 10 72 30 117 74 163 52 54 104
76 182 76 146 0 259 -107 260 -246 1 -199 -199 -324 -376 -234 -69 35 -106 38
-134 10 -30 -30 -26 -76 10 -110 54 -51 132 -74 245 -75 92 0 105 3 167 32
140 66 228 196 236 348 3 62 0 93 -16 140 -11 33 -19 61 -18 63 2 1 39 -9 82
-24 l79 -26 0 -116 c0 -64 4 -130 8 -145 4 -16 43 -63 89 -106 l81 -78 -42
-71 c-23 -40 -43 -72 -45 -72 -2 0 -48 14 -102 31 -70 21 -109 28 -133 24 -36
-7 -181 -85 -217 -117 -28 -25 -48 -74 -69 -171 l-17 -78 -86 3 -86 3 -26 103
c-30 122 -42 137 -161 205 -113 64 -129 65 -245 28 -53 -17 -100 -28 -105 -25
-13 8 -79 123 -79 137 0 7 32 42 71 77 39 35 78 78 85 96 21 50 19 245 -2 287
-9 17 -49 61 -88 98 l-71 67 30 56 c52 97 44 93 127 66 44 -15 99 -24 138 -24
60 -1 71 3 145 46 44 26 82 48 84 48 2 0 32 -21 67 -47z m3229 -83 l60 -60
-158 -158 -157 -157 -62 63 -63 62 155 155 c85 85 157 155 160 155 3 0 32 -27
65 -60z m220 -220 l50 -50 -158 -158 -157 -157 -52 53 -53 52 155 155 c85 85
157 155 160 155 3 0 28 -23 55 -50z"/>
<path d="M2203 3447 c-10 -13 -99 -242 -198 -510 -99 -267 -183 -483 -186
-479 -3 4 -63 171 -133 372 -133 379 -148 410 -200 410 -12 0 -31 -8 -42 -18
-11 -10 -71 -112 -134 -225 l-115 -207 -126 0 c-112 0 -129 -2 -153 -21 -34
-27 -36 -77 -3 -107 22 -21 33 -22 188 -22 159 0 166 1 186 23 11 12 58 89
103 170 45 81 84 146 85 145 1 -2 64 -181 141 -398 76 -217 146 -402 156 -412
23 -23 73 -23 96 0 16 16 88 203 323 839 35 95 66 169 70 165 3 -4 48 -115 99
-247 51 -132 102 -250 113 -262 20 -23 23 -23 294 -23 260 0 274 1 293 20 30
30 27 83 -6 109 -25 20 -39 21 -254 21 l-227 0 -123 318 c-68 174 -132 327
-143 340 -28 30 -79 30 -104 -1z"/>
<path d="M3863 4221 c-251 -93 -349 -384 -203 -609 43 -67 95 -112 177 -150
51 -24 70 -27 158 -27 129 1 191 24 276 103 216 199 166 540 -98 665 -60 28
-80 32 -163 35 -74 2 -107 -2 -147 -17z m242 -150 c156 -71 201 -277 87 -403
-42 -47 -121 -88 -169 -88 -30 0 -33 4 -43 43 -20 80 -72 222 -111 306 -21 46
-39 89 -39 96 0 7 23 25 52 39 65 32 161 35 223 7z m-326 -316 c17 -43 29 -80
27 -82 -6 -7 -42 50 -54 86 -12 33 -17 89 -8 80 3 -2 18 -40 35 -84z"/>
</g>
</svg>
