<?xml version="1.0" standalone="no"?>
<!DOCTYPE svg PUBLIC "-//W3C//DTD SVG 20010904//EN"
 "http://www.w3.org/TR/2001/REC-SVG-20010904/DTD/svg10.dtd">
<svg version="1.0" xmlns="http://www.w3.org/2000/svg"
 width="512.000000pt" height="512.000000pt" viewBox="0 0 512.000000 512.000000"
 preserveAspectRatio="xMidYMid meet">

<g transform="translate(0.000000,512.000000) scale(0.100000,-0.100000)"
fill="#000000" stroke="none">
<path d="M4207 4961 c-19 -23 -25 -44 -30 -107 -13 -161 -72 -308 -160 -402
-86 -90 -166 -127 -306 -141 -97 -10 -121 -28 -121 -88 0 -56 32 -79 124 -87
88 -8 171 -36 232 -77 123 -84 213 -261 230 -451 10 -122 27 -148 92 -148 58
0 73 23 88 137 34 247 128 414 275 489 56 28 161 54 222 54 47 0 97 44 97 85
0 16 -12 38 -29 56 -25 24 -38 29 -78 29 -62 0 -149 23 -215 56 -149 75 -249
261 -274 509 -9 83 -33 115 -88 115 -25 0 -40 -7 -59 -29z m111 -532 c48 -72
113 -140 175 -185 l28 -20 -60 -46 c-68 -53 -131 -129 -168 -202 l-25 -49 -32
59 c-34 65 -139 182 -192 215 l-34 21 42 31 c64 46 140 129 178 196 19 33 36
59 36 58 1 -1 25 -36 52 -78z"/>
<path d="M815 4468 c-40 -22 -45 -38 -45 -160 0 -113 1 -120 25 -143 34 -35
78 -33 116 4 29 29 29 31 29 141 0 110 0 112 -29 141 -31 30 -62 36 -96 17z"/>
<path d="M475 4128 c-52 -28 -62 -92 -20 -133 23 -24 30 -25 144 -25 l119 0
27 32 c32 38 29 81 -11 116 -23 20 -35 22 -132 22 -59 0 -116 -6 -127 -12z"/>
<path d="M971 4114 c-40 -33 -43 -83 -6 -119 23 -24 30 -25 139 -25 63 0 122
3 131 6 19 8 45 55 45 84 0 12 -13 35 -29 51 -29 29 -31 29 -139 29 -104 0
-112 -1 -141 -26z"/>
<path d="M1905 4030 c-182 -38 -346 -112 -496 -224 -291 -219 -469 -577 -469
-943 l0 -93 -157 0 c-173 0 -216 -11 -276 -68 -57 -54 -71 -96 -77 -231 l-5
-124 -59 -14 c-253 -57 -415 -320 -351 -568 35 -133 128 -248 244 -303 31 -15
57 -28 59 -29 2 -1 -69 -274 -158 -608 -105 -392 -160 -615 -156 -631 4 -14
15 -33 26 -44 20 -20 36 -20 715 -20 l696 0 23 23 c15 15 43 82 77 185 29 89
56 162 59 162 3 0 30 -73 59 -162 34 -103 62 -170 77 -185 l23 -23 1654 0
c1647 0 1653 0 1675 20 12 11 24 31 28 44 4 15 -52 241 -151 613 -86 323 -158
596 -161 605 -4 12 13 26 66 54 276 145 333 516 114 739 -61 61 -173 121 -245
131 l-49 7 0 116 c0 95 -4 124 -21 161 -27 60 -64 98 -124 126 -46 22 -63 24
-207 24 l-158 0 0 93 c0 511 -335 971 -825 1130 -164 54 -210 57 -809 56 -494
-1 -560 -3 -641 -19z m1266 -166 c490 -93 839 -515 839 -1015 l0 -79 -169 0
-168 0 -6 108 c-11 212 -89 371 -248 508 -67 57 -192 117 -286 138 -107 24
-1039 24 -1146 0 -94 -21 -219 -81 -286 -138 -159 -137 -237 -296 -248 -508
l-6 -108 -168 0 -169 0 0 89 c0 483 341 901 818 1001 78 17 144 19 623 19 450
1 550 -2 620 -15z m-79 -505 c95 -20 177 -66 254 -143 104 -104 154 -226 154
-378 l0 -68 -940 0 -940 0 0 68 c0 152 50 274 154 378 75 75 149 118 239 140
69 16 1001 19 1079 3z m1403 -784 c23 -22 25 -31 25 -124 l0 -101 -1294 -2
-1294 -3 -26 -24 c-32 -30 -34 -78 -7 -112 l19 -24 1399 -5 1398 -5 53 -24
c72 -33 143 -112 167 -186 43 -139 -21 -284 -158 -357 l-42 -23 -2175 0 -2175
0 -42 23 c-66 35 -110 79 -140 140 -37 76 -40 183 -5 253 31 63 86 117 152
148 l55 26 540 3 c491 3 541 5 558 20 29 26 38 57 26 92 -21 60 -25 60 -499
60 l-430 0 0 100 c0 94 2 103 25 125 l24 25 1911 0 1911 0 24 -25z m-3515
-1187 c-1 -13 -45 -261 -99 -553 l-98 -530 -292 -3 -293 -2 7 27 c3 16 69 263
146 550 76 287 139 525 139 528 0 3 110 5 245 5 l245 0 0 -22z m600 10 c0 -7
-14 -141 -31 -298 l-31 -285 -85 -257 -85 -258 -194 0 c-140 0 -194 3 -194 12
0 11 169 935 191 1046 l10 52 210 0 c160 0 209 -3 209 -12z m594 -80 c-7 -127
-34 -892 -34 -962 l0 -56 -144 0 -144 0 -83 247 -82 246 33 309 33 308 213 0
213 0 -5 -92z m600 10 c6 -83 36 -920 36 -990 l0 -38 -250 0 -250 0 0 38 c0
70 30 907 36 990 l6 82 208 0 208 0 6 -82z m650 -450 c32 -293 60 -543 63
-555 l5 -23 -256 0 -256 0 0 58 c0 65 -26 801 -34 955 l-5 97 212 0 213 0 58
-532z m545 480 c22 -108 191 -1036 191 -1047 0 -8 -74 -11 -250 -11 -137 0
-250 2 -250 3 0 2 -27 246 -60 542 -33 296 -60 544 -60 552 0 10 41 13 209 13
l210 0 10 -52z m661 47 c0 -3 63 -241 139 -528 77 -287 143 -534 146 -550 l7
-27 -293 2 -292 3 -98 530 c-54 292 -98 540 -99 553 l0 22 245 0 c135 0 245
-2 245 -5z"/>
<path d="M802 3945 l-32 -27 0 -119 c0 -114 1 -121 25 -144 24 -25 65 -32 100
-19 32 13 45 59 45 168 0 95 -2 107 -22 130 -35 40 -78 43 -116 11z"/>
</g>
</svg>
