<?xml version="1.0" standalone="no"?>
<!DOCTYPE svg PUBLIC "-//W3C//DTD SVG 20010904//EN"
 "http://www.w3.org/TR/2001/REC-SVG-20010904/DTD/svg10.dtd">
<svg version="1.0" xmlns="http://www.w3.org/2000/svg"
 width="512.000000pt" height="512.000000pt" viewBox="0 0 512.000000 512.000000"
 preserveAspectRatio="xMidYMid meet">

<g transform="translate(0.000000,512.000000) scale(0.100000,-0.100000)"
fill="#000000" stroke="none">
<path d="M980 4716 c-514 -222 -945 -412 -957 -424 l-23 -21 0 -914 c0 -539 4
-967 10 -1043 68 -845 460 -1517 1145 -1966 206 -135 463 -256 691 -323 l90
-27 95 27 c136 39 306 108 445 180 l121 62 39 -24 c155 -96 360 -176 555 -215
147 -29 431 -32 576 -5 249 47 473 141 678 286 103 72 294 263 366 366 399
565 411 1286 32 1860 -200 302 -514 538 -860 647 l-103 32 0 518 c0 358 -3
525 -11 541 -6 14 -23 30 -38 37 -153 73 -1880 810 -1895 809 -12 0 -442 -182
-956 -403z m1400 53 c234 -100 630 -271 880 -378 l455 -196 3 -479 c2 -438 1
-478 -14 -472 -9 3 -83 9 -165 13 l-149 6 0 347 c0 327 -1 348 -19 364 -27 24
-1401 616 -1431 616 -14 0 -342 -136 -728 -302 -622 -268 -705 -306 -719 -332
-13 -24 -14 -133 -10 -825 4 -845 6 -884 57 -1110 121 -542 420 -970 893
-1279 158 -103 440 -232 508 -232 17 0 85 22 151 49 l120 50 119 -121 c66 -67
116 -125 112 -129 -18 -18 -258 -121 -374 -160 l-122 -42 -65 17 c-166 44
-460 181 -636 296 -165 108 -269 192 -406 330 -359 360 -575 799 -655 1330
-29 195 -36 448 -33 1258 l3 804 650 279 c358 154 758 327 890 384 132 57 245
102 250 100 6 -1 201 -85 435 -186z m211 -617 l644 -278 3 -317 2 -317 -22 -4
c-100 -20 -188 -44 -272 -73 -462 -160 -841 -544 -995 -1008 -50 -151 -68
-237 -83 -397 -29 -320 57 -691 223 -961 17 -28 27 -53 22 -58 -5 -5 -46 -24
-92 -43 l-82 -34 -52 20 c-95 36 -251 114 -344 171 -426 265 -720 662 -836
1132 -64 257 -67 314 -67 1145 l0 745 183 78 c100 43 389 167 642 277 253 109
465 199 471 199 5 1 300 -124 655 -277z m1199 -1077 c296 -67 531 -195 740
-405 176 -175 284 -349 360 -579 53 -159 73 -285 73 -461 0 -403 -146 -754
-432 -1041 -223 -222 -492 -362 -796 -415 -132 -22 -356 -22 -490 0 -620 106
-1110 600 -1210 1221 -19 116 -19 354 0 470 101 623 585 1110 1215 1221 105
18 439 12 540 -11z"/>
<path d="M3455 2829 c-11 -6 -40 -38 -65 -72 -24 -34 -134 -183 -243 -330
-245 -331 -341 -477 -417 -632 -149 -302 -166 -572 -55 -836 102 -242 310
-426 572 -506 78 -23 105 -26 238 -27 172 -1 239 13 371 74 310 143 504 429
521 765 15 309 -99 561 -501 1099 -81 110 -188 255 -237 322 -111 153 -131
169 -184 143z m252 -494 c384 -518 481 -696 513 -939 34 -250 -79 -517 -283
-672 -132 -100 -273 -147 -442 -147 -182 -1 -321 47 -463 157 -267 210 -346
575 -199 923 70 167 149 288 427 663 108 146 203 275 211 287 11 18 16 20 25
10 6 -6 101 -133 211 -282z"/>
<path d="M3106 1759 c-38 -45 -112 -202 -136 -289 -30 -110 -28 -248 5 -347
68 -200 233 -340 415 -351 71 -4 79 -2 98 19 49 52 9 129 -67 129 -109 0 -227
85 -282 204 -63 136 -49 286 47 471 30 58 54 116 54 128 0 33 -40 67 -77 67
-23 0 -38 -9 -57 -31z"/>
</g>
</svg>
