<?xml version="1.0" standalone="no"?>
<!DOCTYPE svg PUBLIC "-//W3C//DTD SVG 20010904//EN"
 "http://www.w3.org/TR/2001/REC-SVG-20010904/DTD/svg10.dtd">
<svg version="1.0" xmlns="http://www.w3.org/2000/svg"
 width="512.000000pt" height="512.000000pt" viewBox="0 0 512.000000 512.000000"
 preserveAspectRatio="xMidYMid meet">

<g transform="translate(0.000000,512.000000) scale(0.100000,-0.100000)"
fill="#000000" stroke="none">
<path d="M205 4915 c-32 -31 -33 -74 -2 -103 22 -21 32 -22 215 -22 l192 0 0
-155 0 -155 -190 0 c-189 0 -191 0 -215 -25 -32 -31 -33 -74 -2 -103 22 -21
32 -22 215 -22 l192 0 0 -155 0 -155 -190 0 c-189 0 -191 0 -215 -25 -31 -30
-32 -73 -5 -103 20 -21 28 -22 215 -22 l195 0 0 -154 0 -155 -196 -3 c-192 -3
-196 -3 -215 -27 -36 -44 -19 -100 35 -121 15 -5 105 -10 202 -10 l174 0 0
-150 0 -150 -182 0 c-198 0 -226 -6 -242 -51 -13 -39 0 -77 34 -94 23 -12 68
-15 210 -15 l180 0 0 -150 0 -150 -180 0 c-142 0 -187 -3 -210 -15 -53 -27
-53 -103 0 -130 23 -12 68 -15 210 -15 l180 0 0 -150 0 -150 -180 0 c-142 0
-187 -3 -210 -15 -34 -17 -47 -55 -34 -94 16 -45 44 -51 242 -51 l182 0 0
-150 0 -150 -175 0 c-198 0 -239 -9 -251 -56 -9 -37 6 -76 36 -91 17 -9 81
-13 208 -13 l182 0 0 -155 0 -155 -195 0 c-187 0 -195 -1 -215 -22 -27 -30
-26 -73 5 -103 24 -25 26 -25 215 -25 l190 0 0 -155 0 -155 -193 0 c-189 0
-194 -1 -215 -23 -29 -31 -28 -72 3 -102 24 -25 26 -25 215 -25 l190 0 0 -155
0 -155 -193 0 c-189 0 -194 -1 -215 -23 -29 -31 -28 -72 3 -103 l24 -24 2228
2 2228 3 56 26 c72 34 134 96 168 168 22 47 26 70 26 141 0 135 -17 163 -241
390 l-187 190 192 0 c190 0 192 0 216 25 31 30 32 73 5 103 -20 21 -28 22
-215 22 l-195 0 0 154 0 155 196 3 c192 3 196 3 215 27 36 44 19 100 -35 121
-15 5 -105 10 -202 10 l-174 0 0 150 0 150 183 0 c197 0 225 6 241 51 13 39 0
77 -34 94 -23 12 -68 15 -210 15 l-180 0 0 150 0 150 180 0 c142 0 187 3 210
15 32 17 46 51 36 90 -12 47 -48 55 -246 55 l-180 0 0 150 0 150 180 0 c142 0
187 3 210 15 34 17 47 55 34 94 -16 45 -44 51 -241 51 l-183 0 0 150 0 150
174 0 c97 0 187 5 202 10 54 21 71 77 35 121 -19 24 -23 24 -215 27 l-196 3 0
155 0 154 195 0 c187 0 195 1 215 22 27 30 26 73 -5 103 -24 25 -26 25 -215
25 l-190 0 0 155 0 155 193 0 c189 0 194 1 215 23 29 31 28 72 -3 102 -24 25
-26 25 -215 25 l-190 0 0 155 0 155 193 0 c189 0 194 1 215 23 29 31 28 72 -3
102 l-24 25 -2331 0 -2331 0 -24 -25z m2425 -700 l575 -575 -500 -500 -500
-500 -115 115 c-104 104 -119 115 -151 115 -44 0 -72 -28 -72 -71 0 -25 18
-49 111 -142 62 -62 112 -117 112 -122 0 -5 -26 -35 -57 -67 l-57 -58 -231
230 c-216 215 -233 230 -267 230 -28 0 -42 -7 -57 -26 -43 -54 -38 -61 211
-311 l233 -233 -193 -193 -192 -192 -355 355 -355 355 0 1082 0 1083 643 0
642 0 575 -575z m1720 -1192 l0 -1768 -375 375 -375 374 30 31 c21 22 30 41
30 65 0 30 -15 48 -130 164 l-129 131 299 300 c277 278 300 303 300 335 0 33
-52 87 -855 890 -470 470 -855 858 -855 863 0 4 464 7 1030 7 l1030 0 0 -1767z
m-1397 -855 l-863 -863 -250 250 -250 250 862 862 863 863 250 -250 250 -250
-862 -862z m-863 -1048 c32 0 57 23 335 300 l300 299 131 -129 c116 -115 134
-130 164 -130 25 0 43 9 67 32 l34 32 589 -589 c325 -325 590 -593 590 -597 0
-5 -222 -8 -494 -8 l-494 0 -21 70 c-42 136 -155 259 -288 311 -49 19 -84 24
-217 28 l-159 6 -11 46 c-27 104 -113 202 -212 239 -109 40 -257 18 -342 -51
-43 -35 -100 -116 -114 -160 -11 -37 -13 -39 -52 -39 -145 0 -330 -107 -414
-238 -30 -46 -65 -130 -77 -184 l-5 -28 -315 0 -315 0 0 1037 0 1038 643 -643
c601 -601 645 -642 677 -642z m1298 1067 l92 -92 -228 -228 -227 -227 -95 95
-95 95 225 225 c124 124 227 225 230 225 3 0 47 -42 98 -93z m743 -934 c587
-589 637 -642 649 -684 27 -105 -30 -200 -137 -228 -49 -13 -83 -7 -138 25
-22 12 -319 302 -660 643 l-620 621 130 130 c71 71 132 130 135 130 3 0 292
-287 641 -637z m-1776 -372 c79 -36 115 -95 115 -186 0 -37 6 -60 19 -76 19
-23 24 -24 223 -29 195 -5 205 -7 259 -33 31 -15 76 -48 99 -73 39 -43 79
-114 80 -141 0 -10 -166 -13 -795 -13 -714 0 -795 2 -795 16 0 32 53 125 96
169 26 27 72 59 112 78 61 28 76 31 168 32 117 0 144 13 144 70 0 146 147 245
275 186z"/>
<path d="M1889 4511 c-23 -19 -24 -24 -24 -165 0 -136 1 -147 22 -167 31 -32
80 -30 110 5 22 25 23 35 23 160 0 120 -2 136 -21 160 -25 32 -75 35 -110 7z"/>
<path d="M1468 4094 c-54 -29 -44 -113 14 -133 44 -15 257 -14 288 2 13 7 31
24 39 38 19 33 1 81 -35 98 -38 17 -272 14 -306 -5z"/>
<path d="M2094 4087 c-35 -30 -37 -79 -5 -110 19 -20 33 -22 150 -25 149 -4
196 8 207 54 9 37 -6 76 -36 91 -16 8 -71 13 -157 13 -124 0 -134 -1 -159 -23z"/>
<path d="M1893 3886 c-27 -23 -28 -28 -31 -136 -4 -131 2 -174 29 -201 27 -27
74 -24 104 6 24 23 25 29 25 154 0 140 -8 172 -47 190 -35 16 -49 14 -80 -13z"/>
<path d="M2845 1314 c-170 -60 -214 -284 -79 -402 74 -66 170 -80 259 -38 89
41 135 114 135 214 0 166 -160 281 -315 226z m140 -169 c35 -34 33 -78 -4
-116 -36 -36 -70 -37 -110 -3 -38 31 -41 78 -10 118 28 36 89 37 124 1z"/>
</g>
</svg>
