<?xml version="1.0" standalone="no"?>
<!DOCTYPE svg PUBLIC "-//W3C//DTD SVG 20010904//EN"
 "http://www.w3.org/TR/2001/REC-SVG-20010904/DTD/svg10.dtd">
<svg version="1.0" xmlns="http://www.w3.org/2000/svg"
 width="512.000000pt" height="512.000000pt" viewBox="0 0 512.000000 512.000000"
 preserveAspectRatio="xMidYMid meet">

<g transform="translate(0.000000,512.000000) scale(0.100000,-0.100000)"
fill="#000000" stroke="none">
<path d="M3866 5017 c-17 -18 -24 -39 -29 -92 -18 -191 -171 -344 -363 -362
-80 -7 -114 -32 -114 -83 0 -51 34 -76 114 -83 192 -18 345 -171 363 -362 7
-81 32 -115 83 -115 51 0 76 34 83 115 18 191 171 344 363 362 80 7 114 32
114 83 0 51 -34 76 -114 83 -192 18 -345 171 -363 362 -7 81 -32 115 -83 115
-19 0 -40 -9 -54 -23z m98 -406 c20 -28 59 -67 87 -87 27 -21 49 -41 49 -44 0
-3 -22 -23 -49 -44 -28 -20 -67 -59 -87 -87 -21 -27 -41 -49 -44 -49 -3 0 -23
22 -44 49 -20 28 -59 67 -87 87 -27 21 -49 41 -49 44 0 3 22 23 49 44 28 20
67 59 87 87 21 27 41 49 44 49 3 0 23 -22 44 -49z"/>
<path d="M503 4998 c-11 -18 -30 -49 -42 -69 l-21 -37 187 -108 c104 -59 230
-131 280 -160 l93 -53 39 67 c22 37 36 70 33 74 -4 4 -115 68 -247 143 -132
76 -254 146 -272 156 l-31 19 -19 -32z"/>
<path d="M1280 4707 c-49 -16 -133 -102 -148 -153 -7 -23 -12 -92 -12 -154 0
-145 11 -182 75 -245 57 -57 102 -75 190 -75 l58 0 -7 -82 c-4 -46 -9 -100
-13 -120 l-6 -38 -266 0 c-323 0 -347 -5 -427 -84 -113 -114 -113 -278 0 -392
82 -81 97 -84 489 -84 309 0 329 -1 322 -17 -14 -35 -17 -129 -6 -168 10 -36
8 -42 -13 -65 -93 -97 -97 -272 -9 -372 13 -15 12 -20 -10 -50 -38 -50 -61
-130 -54 -192 5 -52 35 -124 64 -158 13 -14 11 -21 -15 -57 -60 -82 -66 -199
-16 -291 l27 -49 -62 -67 c-76 -83 -135 -197 -150 -291 -8 -47 -11 -230 -9
-594 l3 -525 37 -76 c45 -91 103 -147 196 -191 l67 -32 775 0 775 0 67 32 c93
44 151 100 196 191 l37 76 3 687 3 687 187 4 c211 4 243 12 334 89 85 71 66
69 573 69 l456 0 24 25 25 24 0 749 c0 723 -1 751 -19 773 l-19 24 -699 5
c-818 6 -733 -8 -891 142 -157 149 -235 178 -472 178 -110 0 -140 3 -140 13 0
8 75 43 186 87 113 45 191 82 200 94 17 25 20 375 4 407 -7 11 -120 74 -270
149 l-260 130 -672 -1 c-460 -1 -684 -5 -708 -12z m160 -307 l0 -160 -55 0
c-46 0 -60 4 -80 25 -24 23 -25 31 -25 135 0 104 1 112 25 135 20 21 34 25 80
25 l55 0 0 -160z m1390 55 l210 -105 0 -108 0 -109 -186 -73 c-113 -45 -191
-82 -200 -94 -8 -11 -14 -44 -14 -73 l0 -53 -240 0 -240 0 0 97 0 97 -103 103
-103 103 -177 0 -177 0 0 160 0 160 510 0 510 0 210 -105z m-1085 -411 c-15
-85 -107 -238 -158 -266 -18 -9 -19 -8 -14 18 3 16 12 86 18 157 l13 127 74 0
74 0 -7 -36z m255 -141 l0 -63 -80 0 -80 0 14 33 c8 17 25 65 38 105 l22 72
43 -42 c42 -41 43 -44 43 -105z m-625 -240 c-4 -10 -9 -35 -12 -55 -4 -30 -1
-41 20 -62 32 -32 61 -33 131 -2 59 26 164 94 185 120 10 12 33 16 100 16 l86
0 -120 -120 -120 -121 -387 3 -388 3 -32 33 c-28 28 -33 39 -33 81 0 52 26 93
70 111 11 5 130 9 264 9 228 1 243 0 236 -16z m1787 -10 c26 -12 91 -63 146
-115 106 -100 184 -147 280 -167 35 -7 260 -11 672 -11 l620 0 0 -640 0 -639
-427 -3 c-423 -3 -429 -3 -478 -26 -27 -13 -71 -41 -97 -63 -76 -64 -96 -69
-282 -69 l-164 0 -7 32 c-4 18 -21 62 -38 98 -26 55 -65 100 -244 281 -156
158 -219 229 -235 265 -22 46 -23 64 -28 347 l-5 299 -24 19 c-22 18 -42 19
-294 19 l-270 0 -151 -149 c-151 -149 -183 -171 -251 -171 -66 0 -150 51 -180
110 -22 43 -28 102 -15 150 10 39 39 72 218 253 l207 208 500 -3 c489 -3 501
-3 547 -25z m-442 -653 l0 -120 -160 0 c-144 0 -161 2 -166 18 -16 51 -42 100
-68 130 l-29 33 28 29 29 30 183 0 183 0 0 -120z m-509 -86 c19 -20 24 -37 24
-75 0 -42 -5 -53 -33 -81 l-32 -33 -250 0 -250 0 -30 30 c-35 35 -47 86 -31
128 l11 27 44 -34 c70 -53 128 -71 226 -71 72 1 94 5 141 28 32 15 77 45 100
67 24 21 47 39 50 40 3 0 16 -12 30 -26z m269 -834 l0 -640 -519 0 -519 0 12
53 c18 76 59 146 126 212 l59 58 258 -2 c313 -2 338 3 419 84 63 63 90 136 81
220 -5 52 -35 123 -65 158 -14 15 -14 19 0 35 84 95 85 268 2 363 -13 14 -11
21 12 58 27 40 29 41 81 41 l53 0 0 -640z m248 568 c24 -139 52 -179 289 -419
156 -158 219 -229 235 -265 22 -46 23 -65 26 -286 l3 -238 -320 0 -321 0 0
640 0 640 38 0 38 0 12 -72z m-526 -126 c28 -28 33 -39 33 -82 0 -43 -5 -54
-33 -82 l-32 -33 -250 0 -250 0 -32 33 c-28 28 -33 39 -33 81 0 52 26 93 70
112 11 4 127 7 257 6 l238 -2 32 -33z m0 -400 c28 -28 33 -39 33 -82 0 -43 -5
-54 -33 -82 l-32 -33 -250 0 -250 0 -32 33 c-28 28 -33 39 -33 81 0 52 26 93
70 112 11 4 127 7 257 6 l238 -2 32 -33z m274 -884 c-14 -88 -42 -127 -209
-295 l-161 -163 57 -58 58 -57 167 170 c187 190 221 242 244 373 l12 72 318 0
318 0 0 -416 c0 -298 -3 -428 -12 -458 -16 -55 -99 -138 -154 -154 -59 -17
-1449 -17 -1508 0 -55 16 -138 99 -154 154 -9 30 -12 160 -12 458 l0 416 521
0 522 0 -7 -42z"/>
<path d="M160 4400 l0 -80 400 0 400 0 0 80 0 80 -400 0 -400 0 0 -80z"/>
<path d="M718 4068 l-278 -159 28 -48 c58 -102 27 -107 282 40 124 71 249 143
278 159 l52 30 -27 48 c-59 102 -22 110 -335 -70z"/>
<path d="M586 3097 c-17 -18 -24 -39 -29 -92 -18 -191 -171 -344 -363 -362
-80 -7 -114 -32 -114 -83 0 -51 34 -76 114 -83 192 -18 345 -171 363 -362 7
-81 32 -115 83 -115 51 0 76 34 83 115 18 191 171 344 363 362 80 7 114 32
114 83 0 51 -34 76 -114 83 -192 18 -345 171 -363 362 -7 81 -32 115 -83 115
-19 0 -40 -9 -54 -23z m98 -406 c20 -28 59 -67 87 -87 27 -21 49 -41 49 -44 0
-3 -22 -23 -49 -44 -28 -20 -67 -59 -87 -87 -21 -27 -41 -49 -44 -49 -3 0 -23
22 -44 49 -20 28 -59 67 -87 87 -27 21 -49 41 -49 44 0 3 22 23 49 44 28 20
67 59 87 87 21 27 41 49 44 49 3 0 23 -22 44 -49z"/>
</g>
</svg>
