<svg xmlns="http://www.w3.org/2000/svg" width="512" height="512" viewBox="0 0 512 512">
<g>
<path d="M 25.17 509.85 C22.64,508.60 19.73,506.04 18.17,503.68 C15.52,499.68 15.50,499.53 15.19,478.34 L 14.89 457.02 L 17.40 454.51 C21.23,450.68 25.56,451.28 30.20,456.29 C30.30,456.41 30.64,465.27 30.95,476.00 L 31.50 495.50 L 54.50 495.50 L 77.50 495.50 L 78.00 485.85 C78.59,474.42 80.00,472.00 86.08,472.00 C88.97,472.00 90.34,472.62 91.93,474.63 C93.69,476.88 94.00,478.67 94.00,486.67 C94.00,500.17 91.06,506.16 82.50,510.11 C78.96,511.74 75.68,511.96 54.00,511.98 C30.94,512.00 29.25,511.87 25.17,509.85 ZM 428.38 510.09 C420.68,506.59 417.08,499.08 417.02,486.40 C416.98,475.85 419.36,472.00 425.93,472.00 C431.35,472.00 433.00,474.83 433.00,484.07 C433.00,496.80 431.39,496.00 456.84,496.00 C472.43,496.00 478.94,495.66 479.80,494.80 C480.65,493.95 481.00,488.11 481.00,474.87 L 481.00 456.15 L 483.63 454.07 C487.49,451.04 491.31,451.40 494.41,455.08 C496.99,458.14 497.00,458.23 496.99,476.33 C496.99,496.11 496.30,500.30 492.25,505.11 C486.92,511.44 484.29,511.96 457.00,511.96 C435.21,511.96 432.05,511.75 428.38,510.09 ZM 61.50 461.53 C37.16,457.00 21.22,441.95 16.42,418.96 C15.13,412.74 14.95,403.15 15.26,356.56 C15.60,303.71 15.71,301.17 17.81,293.18 C20.69,282.27 25.15,272.95 33.93,259.51 L 41.11 248.52 L 38.30 247.85 C36.76,247.48 30.10,245.94 23.50,244.44 C12.33,241.90 11.21,241.43 7.37,237.60 C-0.90,229.39 -1.23,215.68 6.63,206.99 C10.89,202.27 12.43,201.75 32.00,198.46 C44.65,196.34 48.18,196.06 51.20,196.95 C55.90,198.35 60.38,202.10 61.99,205.98 C62.68,207.64 63.53,209.00 63.87,208.99 C64.22,208.99 69.20,197.91 74.95,184.37 C86.22,157.80 91.05,149.61 100.11,141.68 C111.60,131.63 122.04,127.81 146.97,124.50 C220.85,114.70 298.38,114.90 369.75,125.08 C390.32,128.01 401.12,132.27 411.89,141.68 C420.98,149.64 425.81,157.84 437.06,184.41 C442.79,197.93 447.76,209.00 448.12,209.00 C448.47,209.00 449.32,207.64 450.01,205.98 C451.62,202.10 456.10,198.35 460.80,196.95 C463.82,196.06 467.35,196.34 480.00,198.46 C499.57,201.75 501.11,202.27 505.37,206.99 C513.23,215.68 512.90,229.38 504.63,237.62 C500.78,241.46 499.69,241.93 488.50,244.47 C481.90,245.97 475.24,247.49 473.70,247.86 L 470.89 248.52 L 478.07 259.51 C486.62,272.60 491.03,281.68 494.09,292.50 C496.28,300.28 496.36,302.01 496.73,356.03 C497.06,403.30 496.89,412.66 495.57,419.03 C491.23,440.04 477.70,454.11 455.50,460.71 C449.84,462.39 438.59,462.50 259.00,462.66 C106.12,462.80 67.12,462.58 61.50,461.53 ZM 447.00 445.95 C468.64,442.50 481.00,427.41 481.00,404.46 L 481.00 398.02 L 264.53 397.76 L 48.06 397.50 L 45.83 395.27 C42.74,392.19 42.79,386.40 45.91,383.87 C48.15,382.06 54.68,382.00 264.68,382.00 L 481.14 382.00 L 480.75 342.25 C480.24,289.57 481.54,294.03 454.66,253.04 L 438.56 228.50 L 425.33 197.63 C418.06,180.66 410.91,165.03 409.44,162.91 C401.43,151.35 388.85,144.10 372.50,141.60 C336.15,136.05 300.98,133.65 256.00,133.65 C211.36,133.65 176.42,136.03 139.50,141.58 C125.72,143.65 115.36,148.68 107.60,157.07 C104.50,160.42 101.12,164.81 100.09,166.83 C97.38,172.16 78.00,217.99 78.00,219.08 C78.00,219.64 145.59,220.00 249.33,220.00 L 420.65 220.00 L 422.98 222.48 C426.17,225.87 425.96,230.78 422.50,233.75 L 419.89 236.00 L 244.14 236.00 L 68.40 236.00 L 54.84 256.75 C39.46,280.27 36.96,284.85 33.83,295.16 C31.66,302.28 31.59,304.08 31.23,356.00 C30.97,393.93 31.20,411.24 32.02,415.47 C35.10,431.27 45.86,441.92 62.40,445.51 C67.34,446.59 103.90,446.85 254.50,446.91 C378.37,446.96 442.67,446.64 447.00,445.95 ZM 52.76 230.83 C54.28,228.30 54.22,227.81 51.53,221.33 C49.97,217.57 48.20,213.97 47.60,213.33 C46.76,212.44 43.26,212.74 33.00,214.58 C25.58,215.91 18.94,217.21 18.25,217.47 C16.26,218.21 16.65,225.93 18.71,226.72 C22.17,228.05 47.56,233.80 49.32,233.65 C50.32,233.57 51.87,232.30 52.76,230.83 ZM 477.74 230.49 C486.35,228.57 493.75,226.43 494.18,225.74 C495.19,224.15 495.20,219.86 494.19,218.28 C492.99,216.38 465.77,211.85 464.41,213.32 C463.19,214.65 458.00,226.61 458.00,228.10 C458.00,229.18 460.99,234.00 461.66,234.00 C461.89,234.00 469.13,232.42 477.74,230.49 ZM 418.26 129.75 C417.11,128.51 414.95,124.44 413.46,120.70 C410.06,112.18 406.92,109.02 398.31,105.46 C389.81,101.94 387.00,99.53 387.00,95.76 C387.00,90.98 388.63,89.32 396.15,86.44 C406.10,82.64 410.07,78.75 414.02,68.94 C417.39,60.59 418.95,59.00 423.76,59.00 C427.64,59.00 430.26,62.08 433.10,69.96 C436.16,78.48 440.57,82.82 449.28,85.87 C463.69,90.91 463.76,99.89 449.43,104.95 C440.69,108.03 436.15,112.51 433.07,121.06 C430.43,128.39 427.14,132.00 423.12,132.00 C421.53,132.00 419.45,131.04 418.26,129.75 ZM 427.76 91.26 L 423.58 87.00 L 419.29 91.21 L 415.00 95.42 L 419.18 99.69 L 423.37 103.96 L 427.66 99.74 L 431.94 95.51 L 427.76 91.26 ZM 339.38 90.52 C336.72,89.40 335.77,87.87 332.51,79.36 C327.42,66.07 322.32,60.89 309.63,56.10 C299.67,52.35 297.00,50.26 297.00,46.22 C297.00,41.64 299.53,39.35 308.24,36.04 C322.92,30.46 327.23,26.18 332.45,12.00 C338.38,-4.13 346.81,-4.26 352.48,11.70 C357.54,25.98 361.88,30.33 376.74,35.99 C385.33,39.27 388.00,41.64 388.00,46.00 C388.00,50.12 385.51,52.55 378.80,54.98 C362.71,60.80 358.62,64.62 352.50,79.59 C349.12,87.86 348.03,89.56 345.48,90.59 C343.08,91.57 341.84,91.55 339.38,90.52 ZM 346.90 56.25 C348.70,53.92 352.13,50.59 354.54,48.86 L 358.92 45.72 L 355.15 43.00 C353.09,41.50 349.38,37.97 346.92,35.16 L 342.46 30.06 L 338.09 35.12 C335.70,37.90 332.03,41.42 329.94,42.93 L 326.14 45.68 L 331.14 49.41 C333.89,51.47 337.55,55.14 339.27,57.58 C340.99,60.01 342.67,61.67 343.02,61.25 C343.36,60.84 345.11,58.59 346.90,56.25 ZM 468.20 80.25 C467.08,79.29 465.13,75.58 463.86,72.01 C460.65,62.96 456.53,58.74 447.69,55.46 C439.41,52.38 437.00,50.12 437.00,45.46 C437.00,41.35 439.58,39.15 448.16,35.94 C456.45,32.84 460.87,28.28 463.87,19.72 C467.23,10.12 472.30,6.72 477.65,10.47 C478.81,11.28 481.21,15.55 482.98,19.96 C486.87,29.60 490.04,32.69 499.89,36.46 C513.88,41.80 513.59,49.71 499.20,55.35 C490.52,58.76 486.20,63.01 483.12,71.18 C481.81,74.66 479.81,78.51 478.69,79.75 C476.20,82.50 471.08,82.74 468.20,80.25 ZM 477.63 49.75 L 481.68 45.50 L 477.43 41.37 L 473.19 37.23 L 469.04 41.46 L 464.89 45.69 L 468.70 49.71 C470.79,51.92 472.74,53.79 473.04,53.87 C473.34,53.94 475.41,52.09 477.63,49.75 ZM 205.75 355.59 C172.52,353.60 169.86,353.30 167.94,351.38 C165.16,348.61 144.00,303.52 144.00,300.39 C144.00,297.04 148.21,293.00 151.70,293.00 C153.24,293.01 165.75,293.89 179.50,294.96 C250.00,300.47 265.16,300.33 354.16,293.39 C362.56,292.74 362.89,292.80 365.41,295.31 C366.85,296.76 368.00,299.05 368.00,300.48 C368.00,303.87 347.47,347.78 344.40,350.97 C342.04,353.42 341.73,353.45 304.76,355.66 C259.87,358.35 251.66,358.34 205.75,355.59 ZM 298.78 339.94 C317.85,338.81 333.66,337.67 333.91,337.42 C334.69,336.65 346.88,310.55 346.60,310.27 C346.46,310.13 338.28,310.66 328.42,311.45 C274.81,315.74 240.42,315.90 191.05,312.05 C177.05,310.97 165.51,310.17 165.41,310.29 C165.31,310.40 168.09,316.58 171.58,324.00 C177.70,336.99 178.07,337.51 181.22,337.84 C190.19,338.76 243.86,341.77 253.31,341.88 C259.25,341.94 279.72,341.07 298.78,339.94 ZM 101.98 342.05 C84.09,339.45 68.16,337.01 66.57,336.61 C60.95,335.20 55.29,330.29 52.33,324.25 C49.79,319.09 49.50,317.48 49.53,308.50 C49.56,297.75 50.67,294.24 55.78,288.77 C60.03,284.23 63.22,283.73 80.23,284.98 C99.44,286.38 116.32,288.56 118.97,289.99 C123.45,292.38 135.26,310.18 145.90,330.58 C150.50,339.38 150.67,342.72 146.66,345.52 C143.54,347.71 138.00,347.28 101.98,342.05 ZM 122.23 321.05 C113.71,306.72 111.63,304.28 107.34,303.57 C100.79,302.49 66.61,300.06 66.04,300.63 C65.74,300.93 65.50,304.72 65.50,309.06 C65.50,320.93 64.49,320.40 95.61,324.98 C109.85,327.07 122.73,328.83 124.23,328.89 L 126.97 329.00 L 122.23 321.05 ZM 364.73 345.25 C361.46,341.62 361.71,338.88 366.09,330.50 C376.45,310.64 388.61,292.35 393.03,289.99 C398.21,287.21 444.90,283.15 450.47,284.99 C458.54,287.65 463.61,298.61 462.78,311.59 C462.01,323.57 456.26,332.66 447.32,336.07 C443.90,337.37 376.17,347.00 370.40,347.00 C367.77,347.00 365.75,346.38 364.73,345.25 ZM 415.13 325.10 C429.78,322.99 442.31,320.93 442.98,320.51 C446.47,318.35 448.41,305.22 445.75,301.76 C444.60,300.26 442.91,300.26 424.51,301.68 C413.52,302.53 403.50,303.62 402.25,304.09 C400.27,304.85 394.50,312.89 387.09,325.25 C385.00,328.73 384.97,329.00 386.67,328.97 C387.68,328.95 400.48,327.21 415.13,325.10 Z" fill="rgba(0,0,0,1)"/>
</g>
</svg>