<?xml version="1.0" standalone="no"?>
<!DOCTYPE svg PUBLIC "-//W3C//DTD SVG 20010904//EN"
 "http://www.w3.org/TR/2001/REC-SVG-20010904/DTD/svg10.dtd">
<svg version="1.0" xmlns="http://www.w3.org/2000/svg"
 width="512.000000pt" height="512.000000pt" viewBox="0 0 512.000000 512.000000"
 preserveAspectRatio="xMidYMid meet">

<g transform="translate(0.000000,512.000000) scale(0.100000,-0.100000)"
fill="#000000" stroke="none">
<path d="M2375 5113 c-487 -29 -890 -166 -990 -337 -14 -24 -28 -66 -31 -92
-8 -66 200 -1843 223 -1903 20 -55 74 -116 127 -144 l41 -22 815 0 815 0 41
22 c53 28 107 89 127 144 15 40 227 1793 227 1875 0 82 -56 169 -148 230 -244
163 -761 257 -1247 227z"/>
<path d="M979 2827 c-19 -12 -42 -39 -52 -59 -35 -72 17 -160 104 -174 21 -4
43 -12 47 -18 5 -6 17 -78 27 -161 9 -82 23 -184 31 -225 27 -144 112 -269
216 -318 48 -22 50 -25 63 -103 9 -57 58 -122 117 -155 l53 -29 405 -3 c266
-2 409 -7 417 -14 10 -8 13 -116 13 -504 0 -461 -1 -493 -17 -498 -10 -2 -52
-8 -93 -11 -92 -8 -263 -45 -365 -80 -270 -90 -463 -265 -468 -423 l-2 -47
102 -3 103 -3 31 51 c57 92 151 154 319 210 97 33 284 70 351 70 l39 0 0 -153
c0 -106 4 -157 12 -165 17 -17 239 -17 256 0 8 8 12 59 12 165 l0 153 39 0
c21 0 78 -7 127 -15 275 -48 461 -137 540 -260 l35 -55 93 0 c71 0 97 4 106
15 25 30 -16 143 -82 226 -121 150 -447 287 -748 314 -41 3 -83 9 -92 11 -17
5 -18 37 -18 498 0 388 3 496 13 504 8 7 151 12 417 14 l405 3 53 29 c59 33
108 98 117 155 13 78 15 80 66 106 106 54 187 175 213 317 8 40 22 141 31 223
10 83 22 155 27 161 4 6 26 14 47 18 87 14 139 102 104 174 -10 20 -33 47 -52
59 -31 21 -45 23 -175 23 -118 0 -147 -3 -175 -18 -37 -20 -71 -73 -71 -110 0
-53 53 -115 110 -127 17 -4 32 -10 34 -14 3 -4 -6 -94 -20 -200 -19 -143 -31
-206 -49 -244 -42 -91 -85 -125 -85 -67 0 71 -57 150 -135 186 l-50 24 -965 0
-965 0 -50 -24 c-78 -36 -135 -115 -135 -186 0 -36 -12 -38 -41 -7 -48 49 -67
115 -93 316 -14 107 -23 198 -20 202 2 4 17 10 34 14 57 12 110 74 110 127 0
37 -34 90 -71 110 -28 15 -57 18 -175 18 -130 0 -144 -2 -175 -23z"/>
</g>
</svg>
