<svg xmlns="http://www.w3.org/2000/svg" width="1024" height="1024" viewBox="0 0 1024 1024">
<g>
<path d="M 439.38 449.69 C440.12,447.94 448.93,428.27 458.96,406.00 C481.51,355.89 486.47,344.83 497.96,319.00 C502.97,307.73 507.75,296.97 508.59,295.10 C509.44,293.19 510.47,292.10 510.95,292.60 C511.41,293.10 516.97,305.20 523.30,319.50 C529.63,333.80 538.46,353.32 542.91,362.87 C547.36,372.43 551.00,380.76 551.00,381.39 C551.00,384.89 526.88,409.00 523.37,409.00 C522.75,409.00 519.64,403.10 516.45,395.90 C513.46,389.12 512.18,385.08 510.69,384.99 C508.80,384.89 506.57,391.16 500.06,406.27 C495.74,416.30 491.62,425.78 490.90,427.34 C489.91,429.49 487.02,431.47 479.05,435.47 C478.10,435.95 477.12,436.43 476.12,436.92 C478.21,435.71 480.34,434.30 480.90,433.62 C482.32,431.91 481.46,429.60 479.79,430.63 C479.21,430.99 478.00,431.36 477.11,431.46 C474.63,431.73 470.27,433.75 469.51,434.98 C469.14,435.59 469.37,436.74 470.04,437.54 C470.70,438.34 471.43,439.00 471.66,439.00 C471.70,439.00 471.75,439.00 471.80,438.99 C461.50,443.84 449.87,448.80 443.26,451.08 L 438.02 452.88 ZM 564.31 504.75 C563.39,503.51 552.73,479.46 549.47,471.25 L 547.78 467.00 L 510.00 467.00 L 510.05 465.33 C510.21,466.89 510.93,467.00 514.00,467.00 C518.52,467.00 518.61,466.87 516.39,463.46 C515.42,461.99 513.82,461.00 512.39,461.00 C511.63,461.00 511.11,461.07 510.75,461.30 C511.51,458.75 512.84,455.08 514.34,451.50 L 518.52 441.51 L 528.42 436.22 C537.74,431.24 554.03,420.59 560.33,415.35 C561.88,414.06 563.51,413.00 563.94,413.00 C564.97,413.00 596.95,482.34 604.66,500.79 C602.41,498.71 599.00,500.46 599.00,504.58 C599.00,505.15 599.41,505.55 600.21,505.77 C596.44,505.91 591.24,506.00 585.56,506.00 C570.47,506.00 565.00,505.68 564.31,504.75 ZM 429.70 464.98 C429.99,466.05 430.29,466.49 430.93,466.40 C425.50,467.64 420.31,468.67 415.50,469.46 C412.54,469.95 409.64,470.45 407.44,470.86 C409.16,470.42 409.38,470.05 408.74,469.40 C408.48,469.15 407.77,469.10 406.90,469.18 C408.96,468.46 411.52,467.64 414.29,466.82 C452.18,455.55 491.39,437.68 521.00,418.17 C536.78,407.77 553.16,391.51 558.33,381.12 C561.09,375.55 562.00,372.49 562.00,368.69 C562.00,364.00 561.68,363.35 557.33,359.19 L 552.67 354.72 L 556.58 355.40 C565.44,356.94 571.25,359.41 575.83,363.55 L 580.50 367.78 L 580.50 375.18 C580.50,381.84 580.15,383.16 577.00,388.48 C570.23,399.89 554.84,413.15 534.93,425.42 C535.64,424.70 535.62,424.18 535.33,423.43 C534.46,421.16 531.22,421.75 526.43,425.05 C522.26,427.92 521.13,429.80 522.67,431.33 C523.08,431.75 523.32,431.98 523.89,431.87 C514.12,437.27 503.57,442.37 492.61,446.88 C494.06,446.12 495.00,445.42 495.00,444.98 C495.00,443.40 489.81,438.00 488.30,438.00 C486.22,438.00 477.00,442.90 477.00,444.00 C477.00,444.54 478.69,446.07 480.75,447.42 C482.95,448.85 485.29,449.63 486.41,449.31 C486.59,449.26 486.76,449.21 486.93,449.16 C475.38,453.66 462.73,457.88 450.38,461.40 C451.90,460.77 453.00,459.95 453.00,459.38 C453.00,457.27 449.08,455.76 445.39,456.45 C442.71,456.96 442.00,457.57 442.00,459.38 C442.00,460.64 442.30,461.97 442.67,462.33 C443.20,462.86 443.78,463.06 445.02,462.88 C440.32,464.16 435.69,465.31 431.22,466.34 C431.48,466.26 431.78,466.12 432.14,465.93 C434.37,464.73 433.72,463.00 431.03,463.00 C429.69,463.00 429.33,463.53 429.70,464.98 ZM 415.00 505.02 C415.00,503.41 428.08,474.59 429.34,473.43 C429.98,472.84 435.23,471.34 441.00,470.09 C449.46,468.26 461.51,464.82 474.82,460.45 C476.65,459.84 476.15,461.19 465.72,485.25 L 456.72 506.00 L 435.86 506.00 C422.96,506.00 415.00,505.63 415.00,505.02 ZM 448.26 665.05 C449.23,666.59 450.35,666.93 457.84,666.99 C442.37,666.98 428.86,666.97 417.05,666.95 C422.03,666.82 425.00,666.48 425.00,666.00 C425.00,665.45 424.10,664.10 423.00,663.00 C421.89,661.89 420.84,661.38 417.91,661.16 C437.22,661.16 461.06,661.18 490.45,661.22 C487.86,661.38 486.46,661.78 485.30,662.54 C482.95,664.08 482.92,664.22 484.67,665.55 C485.75,666.37 491.19,666.88 496.44,667.00 C484.70,667.00 473.81,667.00 463.71,666.99 C470.82,666.94 473.04,666.61 472.75,665.75 C472.27,664.31 467.65,663.38 456.72,662.52 C447.88,661.83 446.51,662.24 448.26,665.05 ZM 597.45 665.92 C597.85,666.56 604.28,666.93 611.19,667.00 L 550.20 667.00 C553.52,666.77 556.00,666.30 556.00,665.57 C556.00,663.08 554.55,661.83 550.26,661.31 L 602.38 661.38 C600.55,661.66 599.70,662.13 598.85,662.92 C597.72,663.98 597.09,665.33 597.45,665.92 ZM 533.36 665.50 C533.65,666.26 536.56,666.76 540.20,667.00 L 511.04 667.00 C507.55,667.00 504.13,667.00 500.78,667.00 C504.32,666.91 507.05,666.59 507.12,666.00 C507.35,664.24 507.52,663.17 507.08,662.50 C506.39,661.45 504.18,661.40 498.22,661.23 C502.28,661.23 506.45,661.24 510.72,661.25 L 536.46 661.28 C532.86,661.76 532.37,662.92 533.36,665.50 ZM 399.08 665.15 C399.71,666.33 400.66,666.77 405.25,666.92 C391.20,666.89 379.98,666.84 371.05,666.78 C373.82,666.53 373.84,666.01 373.67,664.92 C373.49,663.77 372.71,662.43 371.93,661.93 C371.54,661.69 369.37,661.46 366.20,661.29 C375.61,661.22 387.99,661.18 404.22,661.17 C398.80,661.55 397.74,662.64 399.08,665.15 ZM 647.00 666.11 C647.00,666.60 655.35,667.00 665.57,667.00 L 616.27 667.00 C622.58,666.93 628.12,666.61 628.49,666.02 C628.82,665.48 628.61,664.13 628.01,663.02 C627.57,662.20 627.12,661.71 625.72,661.42 L 651.35 661.45 C649.95,661.75 649.42,662.25 648.75,663.08 C647.79,664.26 647.00,665.62 647.00,666.11 ZM 532.49 437.98 C533.12,439.01 536.66,437.49 540.25,434.66 C541.93,433.34 542.81,428.48 541.24,429.17 C536.95,431.05 530.00,435.78 530.00,436.81 C530.00,437.53 530.42,437.86 530.93,437.54 C531.44,437.23 532.14,437.42 532.49,437.98 ZM 556.04 408.03 C557.77,409.10 560.42,406.73 561.49,403.16 C562.10,401.12 561.96,400.95 560.33,401.82 C559.31,402.37 557.60,403.78 556.53,404.97 C554.87,406.80 554.80,407.26 556.04,408.03 ZM 473.03 380.70 C473.08,381.97 476.00,377.75 476.00,376.42 C476.00,375.75 476.67,374.96 477.49,374.64 C478.34,374.32 478.90,373.02 478.78,371.65 C478.66,370.13 478.10,369.41 477.30,369.72 C476.59,369.99 476.26,370.61 476.56,371.10 C476.87,371.60 476.61,372.00 476.00,372.00 C475.39,372.00 475.15,372.44 475.48,372.97 C475.81,373.50 475.39,375.28 474.54,376.92 C473.69,378.56 473.01,380.26 473.03,380.70 ZM 497.49 402.98 C497.83,403.54 498.34,404.00 498.62,404.00 C498.89,404.00 498.84,403.55 498.50,403.00 C498.16,402.45 498.31,402.00 498.84,402.00 C499.37,402.00 500.26,400.69 500.82,399.09 C501.80,396.28 501.51,395.00 499.91,395.00 C498.81,395.00 496.75,401.78 497.49,402.98 ZM 520.00 423.15 C520.00,424.56 522.75,424.11 524.43,422.43 C526.32,420.54 526.57,417.56 524.75,418.59 C522.53,419.85 520.00,422.29 520.00,423.15 ZM 572.16 439.76 C572.80,440.40 573.70,440.69 574.16,440.40 C575.37,439.65 575.20,437.00 573.94,437.00 C573.36,437.00 573.16,436.56 573.49,436.01 C573.84,435.44 573.44,435.28 572.55,435.62 C570.71,436.32 570.54,438.14 572.16,439.76 ZM 441.69 449.35 C442.74,450.40 444.50,449.51 444.50,447.93 C444.50,447.16 443.71,446.38 442.75,446.19 C441.03,445.86 440.31,447.98 441.69,449.35 ZM 562.67 370.33 C563.88,371.55 564.95,371.02 564.36,369.50 C564.05,368.67 563.38,368.00 562.89,368.00 C561.84,368.00 561.71,369.38 562.67,370.33 ZM 464.00 477.56 C464.00,478.42 464.45,478.84 465.00,478.50 C465.55,478.16 466.00,477.46 466.00,476.94 C466.00,476.42 465.55,476.00 465.00,476.00 C464.45,476.00 464.00,476.70 464.00,477.56 ZM 402.00 471.30 C402.00,471.28 402.02,471.24 402.06,471.21 C402.28,471.50 403.21,471.60 404.39,471.46 C404.10,471.53 403.88,471.58 403.75,471.62 C402.79,471.90 402.00,471.76 402.00,471.30 ZM 606.30 505.10 C606.32,505.18 606.32,505.23 606.31,505.25 C606.29,505.28 606.23,505.31 606.13,505.34 C606.20,505.26 606.26,505.19 606.30,505.10 Z" fill="rgba(5,121,135,1)"/>
<path d="M 337.36 665.50 C337.05,664.67 337.05,663.33 337.36,662.50 C337.84,661.25 340.66,661.00 354.22,661.02 C363.17,661.02 371.14,661.44 371.93,661.93 C372.71,662.43 373.49,663.77 373.67,664.92 C373.98,666.96 373.66,667.00 355.96,667.00 C340.86,667.00 337.84,666.76 337.36,665.50 ZM 647.00 666.11 C647.00,665.62 647.79,664.26 648.75,663.08 C650.43,661.02 651.17,660.95 667.00,661.22 L 683.50 661.50 L 683.82 664.25 L 684.13 667.00 L 665.57 667.00 C655.35,667.00 647.00,666.60 647.00,666.11 ZM 597.45 665.92 C597.09,665.33 597.72,663.98 598.85,662.92 C600.67,661.23 602.47,661.00 613.92,661.00 C625.95,661.00 627.01,661.15 628.01,663.02 C628.61,664.13 628.82,665.48 628.49,666.02 C627.63,667.40 598.31,667.31 597.45,665.92 ZM 399.08 665.15 C397.32,661.85 399.70,661.00 410.70,661.00 C419.67,661.00 421.26,661.26 423.00,663.00 C424.10,664.10 425.00,665.45 425.00,666.00 C425.00,666.61 420.18,667.00 412.54,667.00 C401.44,667.00 399.96,666.80 399.08,665.15 ZM 480.75 447.42 C478.69,446.07 477.00,444.54 477.00,444.00 C477.00,442.90 486.22,438.00 488.30,438.00 C489.81,438.00 495.00,443.40 495.00,444.98 C495.00,445.91 490.72,448.07 486.41,449.31 C485.29,449.63 482.95,448.85 480.75,447.42 ZM 533.36 665.50 C531.92,661.75 533.60,661.00 543.40,661.00 C553.10,661.00 556.00,662.05 556.00,665.57 C556.00,667.73 534.19,667.66 533.36,665.50 ZM 484.67 665.55 C482.92,664.22 482.95,664.08 485.30,662.54 C487.24,661.27 489.87,660.99 497.63,661.21 C504.04,661.40 506.37,661.42 507.08,662.50 C507.52,663.17 507.35,664.24 507.12,666.00 C506.92,667.62 486.86,667.21 484.67,665.55 ZM 448.26 665.05 C446.51,662.24 447.88,661.83 456.72,662.52 C467.65,663.38 472.27,664.31 472.75,665.75 C473.07,666.70 470.34,667.00 461.32,667.00 C450.66,667.00 449.36,666.81 448.26,665.05 ZM 522.67 431.33 C521.13,429.80 522.26,427.92 526.43,425.05 C531.22,421.75 534.46,421.16 535.33,423.43 C535.96,425.05 535.34,425.60 528.82,429.33 C523.67,432.27 523.62,432.29 522.67,431.33 ZM 470.04 437.54 C469.37,436.74 469.14,435.59 469.51,434.98 C470.27,433.75 474.63,431.73 477.11,431.46 C478.00,431.36 479.21,430.99 479.79,430.63 C481.46,429.60 482.32,431.91 480.90,433.62 C479.80,434.94 472.84,439.00 471.66,439.00 C471.43,439.00 470.70,438.34 470.04,437.54 ZM 442.67 462.33 C442.30,461.97 442.00,460.64 442.00,459.38 C442.00,457.57 442.71,456.96 445.39,456.45 C449.08,455.76 453.00,457.27 453.00,459.38 C453.00,460.10 451.26,461.20 449.13,461.84 C444.68,463.18 443.59,463.26 442.67,462.33 ZM 532.49 437.98 C532.14,437.42 531.44,437.23 530.93,437.54 C530.42,437.86 530.00,437.53 530.00,436.81 C530.00,435.78 536.95,431.05 541.24,429.17 C542.81,428.48 541.93,433.34 540.25,434.66 C536.66,437.49 533.12,439.01 532.49,437.98 ZM 510.00 464.00 C510.00,461.51 510.40,461.00 512.39,461.00 C513.82,461.00 515.42,461.99 516.39,463.46 C518.61,466.87 518.52,467.00 514.00,467.00 C510.22,467.00 510.00,466.83 510.00,464.00 ZM 599.00 504.58 C599.00,499.68 603.83,498.13 605.77,502.40 C607.13,505.39 606.55,506.00 602.33,506.00 C600.12,506.00 599.00,505.52 599.00,504.58 ZM 556.04 408.03 C554.80,407.26 554.87,406.80 556.53,404.97 C557.60,403.78 559.31,402.37 560.33,401.82 C561.96,400.95 562.10,401.12 561.49,403.16 C560.42,406.73 557.77,409.10 556.04,408.03 ZM 473.03 380.70 C473.01,380.26 473.69,378.56 474.54,376.92 C475.39,375.28 475.81,373.50 475.48,372.97 C475.15,372.44 475.39,372.00 476.00,372.00 C476.61,372.00 476.87,371.60 476.56,371.10 C476.26,370.61 476.59,369.99 477.30,369.72 C478.10,369.41 478.66,370.13 478.78,371.65 C478.90,373.02 478.34,374.32 477.49,374.64 C476.67,374.96 476.00,375.75 476.00,376.42 C476.00,377.75 473.08,381.97 473.03,380.70 ZM 497.49 402.98 C496.75,401.78 498.81,395.00 499.91,395.00 C501.51,395.00 501.80,396.28 500.82,399.09 C500.26,400.69 499.37,402.00 498.84,402.00 C498.31,402.00 498.16,402.45 498.50,403.00 C498.84,403.55 498.89,404.00 498.62,404.00 C498.34,404.00 497.83,403.54 497.49,402.98 ZM 520.00 423.15 C520.00,422.29 522.53,419.85 524.75,418.59 C526.57,417.56 526.32,420.54 524.43,422.43 C522.75,424.11 520.00,424.56 520.00,423.15 ZM 572.16 439.76 C570.54,438.14 570.71,436.32 572.55,435.62 C573.44,435.28 573.84,435.44 573.49,436.01 C573.16,436.56 573.36,437.00 573.94,437.00 C575.20,437.00 575.37,439.65 574.16,440.40 C573.70,440.69 572.80,440.40 572.16,439.76 ZM 402.00 471.05 C402.00,469.99 407.88,468.55 408.74,469.40 C409.59,470.26 408.92,470.63 405.25,471.33 C403.46,471.67 402.00,471.55 402.00,471.05 ZM 429.70 464.98 C429.33,463.53 429.69,463.00 431.03,463.00 C433.72,463.00 434.37,464.73 432.14,465.93 C430.58,466.76 430.12,466.58 429.70,464.98 ZM 441.69 449.35 C440.31,447.98 441.03,445.86 442.75,446.19 C443.71,446.38 444.50,447.16 444.50,447.93 C444.50,449.51 442.74,450.40 441.69,449.35 ZM 562.67 370.33 C561.71,369.38 561.84,368.00 562.89,368.00 C563.38,368.00 564.05,368.67 564.36,369.50 C564.95,371.02 563.88,371.55 562.67,370.33 ZM 464.00 477.56 C464.00,476.70 464.45,476.00 465.00,476.00 C465.55,476.00 466.00,476.42 466.00,476.94 C466.00,477.46 465.55,478.16 465.00,478.50 C464.45,478.84 464.00,478.42 464.00,477.56 Z" fill="rgba(2,128,142,1)"/>
<path d="M 337.00 643.20 C337.00,642.72 341.90,631.12 347.88,617.41 C353.87,603.71 362.12,584.62 366.23,575.00 L 373.70 557.50 L 378.70 557.50 C378.25,557.63 378.00,557.77 378.00,557.93 C378.00,558.44 377.32,559.54 376.49,560.37 C375.66,561.20 374.10,563.82 373.01,566.19 C371.93,568.56 370.05,571.73 368.83,573.24 C367.26,575.19 366.50,577.76 366.18,582.21 C365.86,586.57 365.00,589.55 363.32,592.09 C362.00,594.09 360.64,597.43 360.30,599.51 C359.91,601.94 358.62,604.26 356.71,605.97 C353.56,608.79 349.61,617.83 347.59,626.88 C346.74,630.69 345.49,633.06 343.33,635.00 C341.55,636.59 340.07,639.04 339.81,640.87 L 339.39 643.69 C337.90,643.58 337.00,643.41 337.00,643.20 ZM 597.29 642.67 C597.91,641.08 620.06,609.06 624.19,603.79 L 627.11 600.08 L 619.22 588.79 C613.02,579.90 608.04,572.60 604.57,567.35 C605.82,569.06 607.60,570.78 608.85,571.42 C612.91,573.52 615.02,576.37 615.69,580.63 C616.57,586.19 621.21,592.59 624.91,593.33 C627.65,593.88 631.00,597.99 631.00,600.81 C631.00,602.37 625.73,607.08 622.46,608.45 C619.37,609.74 616.00,614.99 616.00,618.51 C616.00,621.89 611.69,627.98 608.48,629.14 C604.81,630.47 600.00,637.39 600.00,641.35 L 600.00 643.81 C597.70,643.62 597.06,643.28 597.29,642.67 ZM 389.88 557.60 C393.37,557.77 394.67,558.18 395.15,559.00 C395.62,559.83 404.14,578.89 414.08,601.38 C420.92,616.85 426.16,629.19 428.97,636.34 C428.59,635.96 428.20,635.66 427.81,635.48 C426.63,634.94 425.35,633.83 424.97,633.00 C423.32,629.46 421.72,624.19 421.02,620.00 C419.96,613.59 417.34,608.16 413.94,605.29 C412.32,603.93 411.00,602.30 410.99,601.66 C410.98,601.02 409.85,598.07 408.46,595.09 C407.08,592.12 405.75,588.30 405.51,586.59 C404.76,581.23 403.24,577.19 400.69,573.79 C399.33,571.98 397.06,568.25 395.64,565.50 C393.06,560.53 391.91,558.46 389.88,557.60 ZM 672.97 557.02 C679.20,557.07 680.07,557.38 679.60,558.59 C679.27,559.46 673.09,568.89 665.87,579.54 L 652.74 598.91 L 654.62 601.76 C655.40,602.94 659.36,608.76 664.30,615.98 C663.55,614.95 662.69,614.03 661.62,613.08 C654.36,606.59 651.00,602.54 651.00,600.27 C651.00,598.82 651.42,598.14 652.07,598.55 C652.68,598.92 652.60,598.33 651.89,597.19 C650.80,595.45 651.00,594.68 653.37,591.59 C654.87,589.61 656.42,588.00 656.81,588.00 C658.52,588.00 664.82,581.21 665.86,578.25 C668.74,570.05 669.46,568.81 672.13,567.43 C675.87,565.50 678.34,561.65 677.52,559.05 C677.04,557.55 676.30,557.12 672.97,557.02 ZM 664.06 643.63 L 659.50 643.50 L 650.00 629.50 C644.78,621.80 640.05,615.52 639.50,615.55 C638.95,615.58 634.28,621.99 629.13,629.80 L 619.75 644.00 L 617.97 644.00 L 620.45 639.10 C621.81,636.41 624.58,632.85 626.59,631.19 C631.14,627.43 633.98,623.21 633.99,620.18 C634.00,616.87 635.86,613.79 637.30,614.69 C637.96,615.11 639.40,615.57 640.50,615.72 C643.02,616.07 648.00,621.80 648.00,624.34 C648.00,627.19 651.81,632.84 654.85,634.50 C658.92,636.73 663.00,640.73 663.00,642.49 C663.00,643.05 663.23,643.41 664.06,643.63 ZM 395.98 609.45 C395.52,606.79 385.33,581.93 384.22,580.82 C383.49,580.09 372.34,606.41 372.00,609.61 C371.74,609.26 371.50,608.83 371.25,608.29 C369.38,604.27 369.70,602.66 373.00,599.50 C374.65,597.92 376.00,596.09 376.00,595.44 C376.00,594.78 376.61,593.74 377.35,593.13 C378.09,592.51 379.76,589.34 381.05,586.07 C382.35,582.81 383.81,580.38 384.29,580.68 C384.77,580.98 385.01,580.29 384.83,579.15 C384.65,578.02 384.84,577.07 385.25,577.05 C387.75,576.89 388.10,577.27 387.82,579.75 C387.64,581.26 386.96,582.39 386.29,582.26 C384.77,581.97 391.67,598.34 393.31,598.92 C393.97,599.14 395.76,600.67 397.29,602.32 C400.29,605.52 400.50,608.59 397.71,608.36 C396.77,608.28 396.00,608.73 395.99,609.36 C395.99,609.39 395.99,609.42 395.98,609.45 ZM 452.84 679.76 C450.23,679.43 447.63,679.53 445.15,680.06 C441.83,680.77 438.99,682.06 436.63,683.75 C440.25,680.97 441.02,679.85 440.30,678.68 C439.59,677.52 434.52,678.23 431.50,679.61 C433.08,678.37 434.83,677.27 436.73,676.34 C441.27,674.12 446.86,673.23 452.31,673.54 C452.01,673.98 452.00,674.85 452.00,676.42 C452.00,678.48 452.14,679.38 452.84,679.76 ZM 640.25 583.85 C641.24,582.89 644.95,577.59 649.06,571.25 C653.60,564.24 657.81,558.17 658.41,557.77 C658.99,557.38 663.81,557.05 669.27,557.02 C665.36,557.12 664.32,557.72 660.81,560.88 C658.44,563.01 655.24,565.82 653.69,567.13 C652.02,568.54 650.16,571.73 649.10,575.00 C647.66,579.45 646.67,580.83 643.91,582.20 C642.42,582.95 640.96,583.60 640.25,583.85 ZM 496.76 687.18 C496.18,687.36 496.00,687.74 496.00,688.37 C496.00,689.27 495.33,690.00 494.50,690.00 C493.67,690.00 493.00,690.67 493.00,691.50 C493.00,692.55 494.06,693.00 496.55,693.00 C498.39,693.00 500.04,693.28 501.47,693.81 C499.60,693.18 497.30,692.98 494.56,693.20 C491.75,693.44 487.98,694.36 486.18,695.26 C482.96,696.87 482.89,696.85 481.76,694.37 C480.37,691.32 481.12,690.69 488.89,688.38 C491.40,687.63 494.13,687.24 496.76,687.18 ZM 546.94 692.42 C547.49,693.09 548.92,693.46 550.23,693.29 C549.65,693.47 548.95,693.66 548.12,693.87 C543.62,695.03 540.69,697.17 538.40,701.00 C538.23,701.29 538.04,702.30 537.85,703.80 C538.20,697.70 538.55,696.12 539.25,695.42 C540.55,694.11 540.06,692.76 538.50,693.36 C538.35,693.42 538.22,693.46 538.09,693.48 C538.32,693.31 538.61,692.98 539.00,692.50 C540.59,690.57 545.88,687.94 549.26,687.21 C546.97,687.99 545.53,690.73 546.94,692.42 ZM 404.71 629.16 C407.05,632.20 414.47,639.23 416.50,640.06 C418.20,640.75 418.24,640.88 416.75,640.94 C415.79,640.97 415.00,641.67 415.00,642.50 C415.00,643.07 415.35,643.44 416.40,643.67 L 410.69 643.50 L 407.24 635.23 L 404.71 629.16 ZM 559.97 703.19 C560.81,699.53 562.54,695.86 564.71,693.78 C565.95,692.60 567.54,691.48 569.27,690.50 C563.70,693.81 565.27,696.94 572.55,694.41 C573.36,694.12 574.17,693.88 574.96,693.69 C574.31,693.89 573.69,694.14 573.12,694.44 C569.73,696.19 566.01,701.32 566.00,704.25 C566.00,705.21 566.48,705.64 569.61,705.84 C566.30,705.71 566.00,705.25 566.00,704.15 C566.00,701.71 563.70,699.79 561.70,700.56 C561.00,700.83 560.40,701.86 559.97,703.19 ZM 589.02 695.46 C594.36,698.38 595.00,698.49 595.00,696.43 C595.00,694.46 594.06,692.67 592.26,691.14 C596.08,694.01 599.01,698.12 600.07,702.70 C600.81,705.90 601.44,707.87 601.00,709.08 L 601.00 708.00 C601.00,704.13 597.49,700.35 595.47,702.03 C594.96,702.45 594.56,703.04 594.37,703.58 C593.86,701.55 592.05,698.47 589.97,696.47 C588.90,695.45 587.46,694.63 585.85,694.05 C586.92,694.42 587.97,694.89 589.02,695.46 ZM 530.80 712.57 C530.69,702.90 530.58,693.31 530.55,691.25 C530.50,687.74 530.69,687.50 533.50,687.50 C535.63,687.50 536.31,687.76 536.73,689.43 C536.59,689.28 536.39,689.42 536.12,689.84 C535.66,690.57 534.99,691.13 534.64,691.09 C533.35,690.91 532.47,690.76 531.86,691.10 C530.47,691.90 530.59,695.33 530.83,707.25 C531.13,721.92 531.37,723.81 533.32,726.71 C534.51,728.47 535.79,729.60 536.17,729.21 C536.30,729.07 536.45,728.23 536.60,726.88 L 536.50 729.50 L 533.75 729.82 L 531.00 730.13 ZM 619.03 557.39 C619.45,557.50 619.85,557.63 620.24,557.80 C623.40,559.20 625.53,562.92 631.94,572.75 C635.73,578.56 639.17,583.38 639.92,583.94 C639.90,583.95 639.88,583.95 639.87,583.95 C639.52,583.98 637.39,581.19 635.14,577.75 C632.89,574.31 629.71,570.75 628.08,569.83 C626.44,568.91 623.69,565.64 621.96,562.58 L 619.03 557.39 ZM 664.74 616.63 C666.22,618.79 667.78,621.08 669.37,623.39 C673.98,630.13 677.38,635.36 679.36,638.75 C679.33,638.73 679.31,638.70 679.28,638.68 C677.75,637.23 674.82,634.44 672.78,632.48 C670.51,630.31 668.61,627.27 667.92,624.71 C666.92,621.01 666.01,618.59 664.74,616.63 ZM 421.01 702.19 C420.72,695.22 423.09,688.47 427.70,683.21 C425.86,686.02 424.86,689.55 425.37,692.08 C425.85,694.50 425.47,695.59 423.49,697.42 C421.97,698.83 421.09,700.68 421.01,702.19 ZM 440.19 627.96 C440.16,620.40 440.17,610.57 440.24,599.94 C440.40,604.60 440.66,607.29 441.00,607.50 C441.55,607.84 442.00,611.92 442.00,616.56 C442.00,621.52 441.59,625.00 441.00,625.00 C440.66,625.00 440.37,626.13 440.19,627.96 ZM 393.29 611.75 C390.10,613.23 384.11,613.36 382.00,612.00 C381.17,611.47 378.70,611.02 376.50,611.01 C374.74,611.00 373.67,610.87 372.90,610.43 C374.37,610.84 377.75,611.00 384.00,611.00 C391.09,611.00 394.26,610.85 395.42,610.32 C394.93,610.82 394.16,611.35 393.29,611.75 ZM 353.90 643.60 L 355.57 640.49 C356.61,638.57 358.16,636.77 359.02,636.49 C359.68,636.28 360.65,634.99 361.45,633.36 L 360.59 635.50 L 357.39 643.50 L 353.90 643.60 ZM 603.77 566.12 C600.67,561.39 599.00,558.56 599.00,558.04 C599.00,557.38 603.01,557.00 609.83,557.00 C612.13,557.00 613.97,556.96 615.49,557.00 L 611.53 557.00 C604.40,557.00 604.22,557.06 603.02,559.96 C601.99,562.45 602.06,563.30 603.77,566.12 ZM 591.00 566.44 C591.00,562.10 590.61,559.12 590.08,559.45 C589.57,559.76 588.48,559.34 587.65,558.51 C586.42,557.28 582.02,557.02 559.93,557.00 L 591.00 557.00 L 591.00 566.44 ZM 495.30 560.42 C499.94,562.15 503.32,564.67 506.53,568.25 C507.08,568.86 507.59,569.47 508.08,570.09 C506.99,569.05 505.74,568.19 504.30,567.50 C502.02,566.40 499.58,564.48 498.90,563.24 C498.32,562.19 496.97,561.20 495.30,560.42 ZM 492.07 595.50 C493.00,593.62 493.43,591.40 493.42,588.72 C493.42,586.84 493.28,585.18 492.95,583.71 C493.46,584.72 493.90,585.57 494.15,586.00 C494.63,586.83 495.27,588.02 495.58,588.66 C496.06,589.65 494.35,592.64 492.07,595.50 ZM 510.18 604.30 C507.76,608.75 504.14,612.21 499.23,614.74 C501.09,613.61 502.46,612.31 503.00,611.00 C503.64,609.44 505.46,607.64 507.04,606.98 C508.25,606.48 509.30,605.58 510.18,604.30 ZM 475.72 557.35 C481.19,557.57 485.65,558.03 489.40,558.78 C487.87,558.63 486.48,558.74 485.50,559.18 C483.58,560.05 482.56,559.94 480.58,558.64 C479.59,557.99 478.31,557.59 475.72,557.35 ZM 507.80 725.76 L 509.49 727.58 C513.65,732.07 514.00,731.04 514.00,714.25 L 514.00 730.00 L 511.00 730.00 C508.44,730.00 508.00,729.62 508.00,727.42 C508.00,726.74 507.92,726.16 507.80,725.76 ZM 440.46 563.77 L 440.50 557.50 L 445.67 557.42 C444.36,557.71 443.35,558.16 442.57,558.87 C441.45,559.89 440.82,561.43 440.46,563.77 ZM 425.24 715.98 C424.83,715.29 424.44,714.57 424.07,713.83 C422.31,710.30 421.33,706.64 421.06,703.02 C421.18,703.66 421.49,704.18 422.00,704.50 C422.55,704.84 423.00,706.80 423.00,708.86 C423.00,710.88 423.86,713.46 425.24,715.98 ZM 440.46 642.75 C440.38,642.56 440.32,640.95 440.28,638.24 C440.54,640.03 441.00,641.09 441.75,641.92 C443.21,643.51 444.97,643.85 452.25,643.92 L 461.00 644.00 L 450.97 644.00 C443.86,644.00 440.80,643.64 440.46,642.75 ZM 587.19 643.54 C589.49,643.31 590.19,642.96 590.39,642.44 C590.72,641.58 591.46,641.17 592.04,641.53 C592.22,641.64 592.38,641.59 592.50,641.37 L 592.50 643.50 L 587.19 643.54 ZM 512.56 578.58 C513.72,582.27 514.10,586.33 513.77,590.94 C513.58,593.67 513.16,596.19 512.50,598.52 C513.16,595.65 513.50,592.12 513.50,587.97 C513.50,584.35 513.19,581.24 512.56,578.58 ZM 490.12 618.04 C485.29,619.21 479.69,619.84 473.29,619.96 C477.10,619.86 480.09,619.58 480.42,619.25 C480.83,618.84 483.49,618.46 486.33,618.41 C487.58,618.39 488.86,618.26 490.12,618.04 ZM 681.31 642.72 C681.35,642.92 681.34,643.06 681.28,643.12 C680.80,643.60 676.41,643.90 671.24,643.82 C671.54,643.81 671.85,643.80 672.17,643.79 C676.76,643.64 680.18,643.23 681.31,642.72 ZM 458.64 674.47 C462.77,675.48 466.49,677.23 469.17,679.66 C470.38,680.75 470.70,681.15 470.16,682.14 C470.52,681.35 470.24,680.84 469.35,679.84 C468.01,678.35 463.04,675.94 458.64,674.47 ZM 571.33 727.45 C566.73,725.29 563.57,722.45 562.12,719.23 C563.74,722.22 566.98,725.21 571.03,727.21 C573.57,728.47 576.24,729.28 578.91,729.66 C576.33,729.32 573.76,728.59 571.33,727.45 ZM 488.76 577.18 C485.37,574.88 479.87,574.00 471.48,574.00 C480.84,574.00 485.78,574.78 488.76,577.18 ZM 428.87 707.79 C430.91,714.68 436.26,720.73 444.93,723.01 C445.46,723.15 445.99,723.27 446.52,723.36 C438.29,722.03 431.26,716.19 428.87,707.79 ZM 512.51 695.61 C512.42,695.43 512.34,695.25 512.25,695.07 C510.45,691.54 507.86,689.23 504.32,688.05 C505.70,688.46 506.88,688.99 507.79,689.66 C510.11,691.35 511.58,692.95 512.51,695.61 ZM 588.37 688.80 C583.89,686.84 579.49,686.61 574.70,688.11 C576.78,687.43 578.81,687.03 580.55,687.02 C583.22,687.01 585.89,687.65 588.37,688.80 ZM 561.00 715.22 C560.66,713.84 560.22,712.19 559.84,710.89 C559.78,710.71 559.73,710.51 559.69,710.32 C559.76,710.51 559.84,710.69 559.92,710.86 C560.51,711.95 560.98,713.89 561.00,715.22 ZM 435.76 684.41 C432.38,687.12 430.09,690.72 428.90,694.64 C430.08,690.44 432.42,686.94 435.76,684.41 ZM 484.98 728.17 C487.61,729.55 490.81,730.10 494.13,729.84 C490.72,730.25 487.84,729.67 484.98,728.17 ZM 469.25 683.46 C469.23,683.47 469.22,683.49 469.21,683.51 L 467.50 685.78 L 464.60 684.09 L 467.50 685.60 L 469.17 683.55 C469.20,683.52 469.22,683.49 469.25,683.46 ZM 537.53 693.39 C537.15,693.15 536.99,692.46 536.98,691.22 C536.98,691.05 536.98,690.89 536.98,690.75 C536.98,690.80 536.99,690.86 537.00,690.91 C537.20,692.25 537.33,693.04 537.53,693.39 ZM 439.50 727.97 C437.57,727.22 435.81,726.36 434.20,725.37 C435.97,726.36 438.12,727.41 439.84,728.08 C440.06,728.17 440.29,728.26 440.52,728.34 C440.18,728.22 439.84,728.10 439.50,727.97 ZM 362.55 630.61 L 363.68 627.50 L 380.01 627.28 L 363.80 627.50 L 362.55 630.61 ZM 503.79 726.85 L 507.25 725.16 L 507.28 725.20 C507.27,725.20 507.26,725.21 507.25,725.21 C506.04,725.82 504.89,726.37 503.79,726.85 ZM 457.67 680.83 C456.58,680.48 455.49,680.20 454.40,680.00 C455.06,680.00 456.26,680.32 457.67,680.83 ZM 591.89 711.00 C589.64,711.02 586.87,711.00 583.50,711.00 L 591.89 711.00 ZM 485.93 601.25 C486.05,601.19 486.18,601.12 486.30,601.06 C486.18,601.13 486.06,601.19 485.95,601.25 C484.75,601.86 483.42,602.27 481.56,602.54 C483.41,602.27 484.74,601.86 485.93,601.25 ZM 525.68 643.35 C525.68,643.34 525.68,643.34 525.67,643.34 C525.77,643.41 526.39,643.48 527.43,643.54 C526.36,643.48 525.75,643.42 525.68,643.35 ZM 552.94 688.65 C552.98,688.97 553.00,689.36 553.00,689.81 L 553.00 689.85 C553.00,689.38 552.98,688.98 552.94,688.65 ZM 551.71 687.10 C551.97,687.15 552.19,687.24 552.36,687.37 C552.19,687.24 551.97,687.15 551.71,687.10 Z" fill="rgba(66,65,64,1)"/>
<path d="M 439.84 728.08 C437.27,727.08 433.73,725.23 431.97,723.98 C427.33,720.67 423.00,713.38 423.00,708.86 C423.00,706.80 422.55,704.84 422.00,704.50 C420.19,703.38 420.95,699.77 423.49,697.42 C425.47,695.59 425.85,694.50 425.37,692.08 C424.68,688.67 426.74,683.45 429.88,680.61 C432.07,678.63 439.43,677.27 440.30,678.68 C441.08,679.93 440.13,681.14 435.80,684.38 C430.75,688.17 428.00,694.19 428.00,701.43 C428.00,718.88 446.42,729.25 461.85,720.47 C466.96,717.57 468.28,717.43 470.11,719.63 C471.28,721.04 471.01,721.63 467.98,724.16 C461.19,729.83 448.75,731.57 439.84,728.08 ZM 484.98 728.17 C480.55,725.85 477.56,720.15 478.41,715.64 C478.86,713.23 480.24,711.51 483.67,709.10 C487.89,706.12 489.16,705.77 497.69,705.26 C502.85,704.95 507.26,704.39 507.50,704.01 C507.73,703.63 507.47,701.67 506.92,699.66 C505.74,695.41 501.99,693.00 496.55,693.00 C494.06,693.00 493.00,692.55 493.00,691.50 C493.00,690.67 493.67,690.00 494.50,690.00 C495.33,690.00 496.00,689.27 496.00,688.37 C496.00,687.02 496.80,686.83 500.61,687.26 C506.11,687.88 509.87,690.40 512.25,695.07 C513.69,697.91 514.00,701.23 514.00,714.25 C514.00,731.04 513.65,732.07 509.49,727.58 L 507.25 725.16 L 502.37 727.55 C496.45,730.45 489.78,730.69 484.98,728.17 ZM 500.38 723.82 C502.65,723.18 505.00,722.27 505.62,721.81 C506.90,720.85 508.11,713.44 507.31,711.38 C506.60,709.51 494.07,709.53 489.56,711.41 C483.68,713.87 483.51,721.01 489.28,723.52 C493.28,725.26 495.17,725.31 500.38,723.82 ZM 533.32 726.71 C531.37,723.81 531.13,721.92 530.83,707.25 C530.48,690.15 530.40,690.52 534.64,691.09 C534.99,691.13 535.66,690.57 536.12,689.84 C536.71,688.92 536.97,689.35 536.98,691.22 C537.00,693.22 537.40,693.79 538.50,693.36 C540.06,692.76 540.55,694.11 539.25,695.42 C538.23,696.43 537.96,699.27 537.36,715.00 C537.08,722.42 536.55,728.82 536.17,729.21 C535.79,729.60 534.51,728.47 533.32,726.71 ZM 571.03 727.21 C565.17,724.31 561.00,719.35 561.00,715.29 C561.00,713.96 560.52,711.96 559.92,710.86 C558.52,708.23 559.71,701.33 561.70,700.56 C563.70,699.79 566.00,701.71 566.00,704.15 C566.00,705.95 566.81,706.04 580.25,705.78 C590.35,705.58 594.44,705.16 594.28,704.35 C594.16,703.71 594.69,702.67 595.47,702.03 C597.49,700.35 601.00,704.13 601.00,708.00 L 601.00 711.00 L 583.50 711.00 C564.36,711.00 564.46,710.96 567.99,716.76 C572.40,723.99 582.01,726.13 590.67,721.81 C594.85,719.72 595.13,719.70 596.77,721.38 C598.41,723.05 598.35,723.26 595.64,725.44 C589.18,730.66 579.40,731.36 571.03,727.21 ZM 589.02 695.46 C583.93,692.67 578.52,692.33 572.55,694.41 C564.51,697.20 563.44,693.10 571.25,689.46 C577.53,686.54 583.02,686.37 588.67,688.94 C592.80,690.81 595.00,693.42 595.00,696.43 C595.00,698.49 594.36,698.38 589.02,695.46 ZM 546.94 692.42 C545.28,690.43 547.56,687.00 550.54,687.00 C552.59,687.00 553.00,687.49 553.00,689.88 C553.00,692.16 552.48,692.87 550.51,693.24 C549.13,693.51 547.53,693.14 546.94,692.42 ZM 462.14 682.80 C459.19,681.26 455.70,680.00 454.39,680.00 C452.32,680.00 452.00,679.53 452.00,676.42 C452.00,672.91 452.06,672.85 455.25,673.53 C460.05,674.55 467.64,677.95 469.35,679.84 C470.67,681.32 470.65,681.73 469.17,683.55 L 467.50 685.60 L 462.14 682.80 ZM 339.81 640.87 C340.07,639.04 341.55,636.59 343.33,635.00 C345.49,633.06 346.74,630.69 347.59,626.88 C349.61,617.83 353.56,608.79 356.71,605.97 C358.62,604.26 359.91,601.94 360.30,599.51 C360.64,597.43 362.00,594.09 363.32,592.09 C365.00,589.55 365.86,586.57 366.18,582.21 C366.50,577.76 367.26,575.19 368.83,573.24 C370.05,571.73 371.93,568.56 373.01,566.19 C374.10,563.82 375.66,561.20 376.49,560.37 C377.32,559.54 378.00,558.44 378.00,557.93 C378.00,557.42 380.76,557.00 384.14,557.00 C391.01,557.00 391.38,557.27 395.64,565.50 C397.06,568.25 399.33,571.98 400.69,573.79 C403.24,577.19 404.76,581.23 405.51,586.59 C405.75,588.30 407.08,592.12 408.46,595.09 C409.85,598.07 410.98,601.02 410.99,601.66 C411.00,602.30 412.32,603.93 413.94,605.29 C417.34,608.16 419.96,613.59 421.02,620.00 C421.72,624.19 423.32,629.46 424.97,633.00 C425.35,633.83 426.63,634.94 427.81,635.48 C430.02,636.48 432.41,641.53 431.43,643.11 C431.13,643.60 427.31,644.00 422.94,644.00 C416.55,644.00 415.00,643.71 415.00,642.50 C415.00,641.67 415.79,640.97 416.75,640.94 C418.24,640.88 418.20,640.75 416.50,640.06 C414.08,639.07 404.00,629.28 404.00,627.92 C404.00,627.33 396.32,627.06 383.84,627.23 L 363.68 627.50 L 362.14 631.75 C361.28,634.08 359.88,636.22 359.02,636.49 C358.16,636.77 356.61,638.57 355.57,640.49 L 353.69 644.00 L 346.52 644.00 L 339.35 644.00 L 339.81 640.87 ZM 393.29 611.75 C394.77,611.06 395.99,609.99 395.99,609.36 C396.00,608.73 396.77,608.28 397.71,608.36 C400.50,608.59 400.29,605.52 397.29,602.32 C395.76,600.67 393.97,599.14 393.31,598.92 C391.67,598.34 384.77,581.97 386.29,582.26 C386.96,582.39 387.64,581.26 387.82,579.75 C388.10,577.27 387.75,576.89 385.25,577.05 C384.84,577.07 384.65,578.02 384.83,579.15 C385.01,580.29 384.77,580.98 384.29,580.68 C383.81,580.38 382.35,582.81 381.05,586.07 C379.76,589.34 378.09,592.51 377.35,593.13 C376.61,593.74 376.00,594.78 376.00,595.44 C376.00,596.09 374.65,597.92 373.00,599.50 C369.70,602.66 369.38,604.27 371.25,608.29 C372.30,610.55 373.14,610.99 376.50,611.01 C378.70,611.02 381.17,611.47 382.00,612.00 C384.11,613.36 390.10,613.23 393.29,611.75 ZM 441.75 641.92 C440.41,640.45 440.00,638.25 440.00,632.50 C440.00,628.17 440.42,625.00 441.00,625.00 C441.59,625.00 442.00,621.52 442.00,616.56 C442.00,611.92 441.55,607.84 441.00,607.50 C440.38,607.12 440.01,598.28 440.03,584.19 C440.08,554.61 438.24,557.00 460.95,557.00 C475.14,557.00 478.50,557.28 480.58,558.64 C482.56,559.94 483.58,560.05 485.50,559.18 C488.87,557.65 497.20,560.17 498.90,563.24 C499.58,564.48 502.02,566.40 504.30,567.50 C510.64,570.55 513.50,576.91 513.50,587.97 C513.50,598.64 511.26,605.23 507.04,606.98 C505.46,607.64 503.64,609.44 503.00,611.00 C501.47,614.69 493.38,618.29 486.33,618.41 C483.49,618.46 480.83,618.84 480.42,619.25 C480.00,619.66 475.47,620.00 470.33,620.00 L 461.00 620.00 L 461.00 632.00 L 461.00 644.00 L 452.25 643.92 C444.97,643.85 443.21,643.51 441.75,641.92 ZM 485.95 601.25 C489.73,599.33 496.48,590.51 495.58,588.66 C495.27,588.02 494.63,586.83 494.15,586.00 C493.68,585.17 492.50,582.84 491.52,580.81 C488.98,575.51 484.52,574.00 471.48,574.00 L 461.00 574.00 L 461.00 588.50 L 461.00 603.00 L 471.75 603.00 C480.00,603.00 483.30,602.59 485.95,601.25 ZM 525.67 643.33 C525.30,642.97 525.00,623.86 525.00,600.87 C525.00,560.57 525.07,559.03 526.93,558.04 C528.14,557.39 539.68,557.00 557.51,557.00 C581.71,557.00 586.38,557.23 587.65,558.51 C588.48,559.34 589.57,559.76 590.08,559.45 C590.61,559.12 591.00,562.10 591.00,566.44 L 591.00 574.00 L 568.00 574.00 L 545.00 574.00 L 545.00 583.00 L 545.00 592.00 L 564.46 592.00 C586.94,592.00 586.32,591.72 585.80,601.78 L 585.50 607.50 L 565.50 608.00 L 545.50 608.50 L 545.21 617.77 C545.00,624.62 545.26,627.16 546.21,627.53 C546.92,627.80 557.62,628.13 570.00,628.26 L 592.50 628.50 L 592.80 635.34 C593.00,639.95 592.75,641.96 592.04,641.53 C591.46,641.17 590.72,641.58 590.39,642.44 C589.86,643.81 585.91,644.00 558.06,644.00 C540.61,644.00 526.03,643.70 525.67,643.33 ZM 600.00 641.35 C600.00,637.39 604.81,630.47 608.48,629.14 C611.69,627.98 616.00,621.89 616.00,618.51 C616.00,614.99 619.37,609.74 622.46,608.45 C625.73,607.08 631.00,602.37 631.00,600.81 C631.00,597.99 627.65,593.88 624.91,593.33 C621.21,592.59 616.57,586.19 615.69,580.63 C615.02,576.37 612.91,573.52 608.85,571.42 C607.39,570.67 605.20,568.45 603.99,566.49 C602.07,563.37 601.94,562.55 603.02,559.96 C604.22,557.06 604.40,557.00 611.53,557.00 L 618.81 557.00 L 621.96 562.58 C623.69,565.64 626.44,568.91 628.08,569.83 C629.71,570.75 632.89,574.31 635.14,577.75 C637.39,581.19 639.52,583.98 639.87,583.95 C640.22,583.93 642.04,583.14 643.91,582.20 C646.67,580.83 647.66,579.45 649.10,575.00 C650.16,571.73 652.02,568.54 653.69,567.13 C655.24,565.82 658.44,563.01 660.81,560.88 C664.79,557.30 665.59,557.00 671.00,557.00 C676.03,557.00 676.96,557.29 677.52,559.05 C678.34,561.65 675.87,565.50 672.13,567.43 C669.46,568.81 668.74,570.05 665.86,578.25 C664.82,581.21 658.52,588.00 656.81,588.00 C656.42,588.00 654.87,589.61 653.37,591.59 C651.00,594.68 650.80,595.45 651.89,597.19 C652.60,598.33 652.68,598.92 652.07,598.55 C651.42,598.14 651.00,598.82 651.00,600.27 C651.00,602.54 654.36,606.59 661.62,613.08 C664.85,615.97 666.26,618.56 667.92,624.71 C668.61,627.27 670.51,630.31 672.78,632.48 C674.82,634.44 677.75,637.23 679.28,638.68 C680.81,640.13 681.90,641.81 681.70,642.41 C681.48,643.06 677.66,643.62 672.17,643.79 C664.34,644.03 663.00,643.84 663.00,642.49 C663.00,640.73 658.92,636.73 654.85,634.50 C651.81,632.84 648.00,627.19 648.00,624.34 C648.00,621.80 643.02,616.07 640.50,615.72 C639.40,615.57 637.96,615.11 637.30,614.69 C635.86,613.79 634.00,616.87 633.99,620.18 C633.98,623.21 631.14,627.43 626.59,631.19 C624.58,632.85 621.81,636.41 620.45,639.10 L 617.97 644.00 L 608.98 644.00 L 600.00 644.00 L 600.00 641.35 Z" fill="rgba(72,72,72,1)"/>
</g>
</svg>